<?xml version="1.0" encoding="UTF-8"?>
<svg width="16px" height="16px" viewBox="0 0 16 16" version="1.1" xmlns="http://www.w3.org/2000/svg" xmlns:xlink="http://www.w3.org/1999/xlink">
    <title>+</title>
    <defs>
        <path d="M7,0 C10.8659932,0 14,3.13400675 14,7 C14,10.8659932 10.8659932,14 7,14 C3.13400675,14 0,10.8659932 0,7 C0,3.13400675 3.13400675,0 7,0 Z M7,3.5 C6.61340068,3.5 6.3,3.81340068 6.3,4.2 L6.3,4.2 L6.299,6.299 L4.2,6.3 C3.84561729,6.3 3.55274177,6.56334362 3.50639017,6.90501415 L3.5,7 C3.5,7.38659932 3.81340068,7.7 4.2,7.7 L4.2,7.7 L6.299,7.7 L6.3,9.8 C6.3,10.1543827 6.56334362,10.4472582 6.90501415,10.4936098 L7,10.5 C7.38659932,10.5 7.7,10.1865993 7.7,9.8 L7.7,9.8 L7.7,7.7 L9.8,7.7 C10.1543827,7.7 10.4472582,7.43665638 10.4936098,7.09498585 L10.5,7 C10.5,6.61340068 10.1865993,6.3 9.8,6.3 L9.8,6.3 L7.7,6.299 L7.7,4.2 C7.7,3.84561729 7.43665638,3.55274177 7.09498585,3.50639017 Z" id="path-1"></path>
    </defs>
    <g id="é¡µé¢-1" stroke="none" stroke-width="1" fill="none" fill-rule="evenodd">
        <g id="åº”ç”¨ä¸­å¿ƒ-CMDB-åˆ‡å›¾" transform="translate(-283.000000, -487.000000)">
            <rect id="bg" fill="#F5F6FA" x="0" y="-1" width="1440" height="1609"></rect>
            <g id="+" transform="translate(283.000000, 487.000000)">
                <g id="Icon/add/fill" transform="translate(1.000000, 1.000000)">
                    <mask id="mask-2" fill="white">
                        <use xlink:href="#path-1"></use>
                    </mask>
                    <use id="â†³ðŸŽ¨-Color" fill="#FFFFFF" xlink:href="#path-1"></use>
                </g>
            </g>
        </g>
    </g>
</svg>