<?xml version="1.0" encoding="UTF-8"?>
<svg width="16px" height="16px" viewBox="0 0 16 16" version="1.1" xmlns="http://www.w3.org/2000/svg" xmlns:xlink="http://www.w3.org/1999/xlink">
    <title>+</title>
    <g id="页面-1" stroke="none" stroke-width="1" fill="none" fill-rule="evenodd">
        <g id="应用中心-CMDB-切图" transform="translate(-611.000000, -487.000000)">
            <g id="+" transform="translate(611.000000, 487.000000)">
                <circle id="Circle-Copy" stroke="#595AEC" stroke-width="1.5" cx="8" cy="8" r="7.25"></circle>
                <path d="M8.05024372,4 C8.46440551,4 8.80014998,4.33577594 8.80014998,4.74997656 L8.80014998,7.20015 L11.2500937,7.20089997 C11.6642555,7.20089997 12,7.53667592 12,7.95087654 L12,8.05062342 C12,8.46482404 11.6642555,8.80059998 11.2500937,8.80059998 L8.80014998,8.80059998 L8.80014998,11.2500234 C8.80014998,11.6642241 8.46440551,12 8.05024372,12 L7.95050619,12 C7.53634439,12 7.20059993,11.6642241 7.20059993,11.2500234 L7.20059993,8.79985 L4.74990626,8.79985 C4.33574447,8.79985 4,8.46407406 4,8.04987344 L4,7.95012656 C4,7.53592594 4.33574447,7.20015 4.74990626,7.20015 L7.20059993,7.20015 L7.20134983,4.74997656 C7.20134983,4.33577594 7.5370943,4 7.95125609,4 L8.05099363,4 L8.05024372,4 Z" id="路径" fill="#595AEC"></path>
            </g>
        </g>
    </g>
</svg>