<?xml version="1.0" encoding="UTF-8"?>
<svg width="16px" height="16px" viewBox="0 0 16 16" version="1.1" xmlns="http://www.w3.org/2000/svg" xmlns:xlink="http://www.w3.org/1999/xlink">
    <title>全屏</title>
    <g id="页面-1" stroke="none" stroke-width="1" fill="none" fill-rule="evenodd">
        <g id="应用中心-CMDB-切图" transform="translate(-503.000000, -487.000000)" fill="#595AEC">
            <g id="全屏" transform="translate(503.000000, 487.000000)">
                <path d="M2,14.6666667 C1.63333333,14.6666667 1.33333333,14.3666667 1.33333333,14 L1.33333333,2 C1.33333333,1.63333333 1.63333333,1.33333333 2,1.33333333 L14,1.33333333 C14.3666667,1.33333333 14.6666667,1.63333333 14.6666667,2 L14.6666667,14 C14.6666667,14.3666667 14.3666667,14.6666667 14,14.6666667 L2,14.6666667 Z M0,14 C0,15.1066667 0.893333333,16 2,16 L14,16 C15.1066667,16 16,15.1066667 16,14 L16,2 C16,0.893333333 15.1066667,0 14,0 L2,0 C0.893333333,0 0,0.893333333 0,2 L0,14 Z M7.14,7.14 C7.4,6.88 7.4,6.46 7.14,6.2 L4.94,4 L6,4 C6.36666667,4 6.66666667,3.7 6.66666667,3.33333333 C6.66666667,2.96666667 6.36666667,2.66666667 6,2.66666667 L3.33333333,2.66666667 C2.96666667,2.66666667 2.66666667,2.96666667 2.66666667,3.33333333 L2.66666667,6 C2.66666667,6.36666667 2.96666667,6.66666667 3.33333333,6.66666667 C3.7,6.66666667 4,6.36666667 4,6 L4,4.94666667 L6.19333333,7.14 C6.45333333,7.4 6.88,7.4 7.14,7.14 Z M8.86,6.2 C8.6,6.46 8.6,6.88 8.86,7.14 C9.12,7.4 9.54666667,7.4 9.80666667,7.14 L12,4.94666667 L12,6 C12,6.36666667 12.3,6.66666667 12.6666667,6.66666667 C13.0333333,6.66666667 13.3333333,6.36666667 13.3333333,6 L13.3333333,3.33333333 C13.3333333,2.96666667 13.0333333,2.66666667 12.6666667,2.66666667 L10,2.66666667 C9.63333333,2.66666667 9.33333333,2.96666667 9.33333333,3.33333333 C9.33333333,3.7 9.63333333,4 10,4 L11.06,4 L8.86,6.2 Z M7.14,8.86 C7.4,9.12 7.4,9.54666667 7.14,9.80666667 L4.94,12 L6,12 C6.36666667,12 6.66666667,12.3 6.66666667,12.6666667 C6.66666667,13.0333333 6.36666667,13.3333333 6,13.3333333 L3.33333333,13.3333333 C2.96666667,13.3333333 2.66666667,13.0333333 2.66666667,12.6666667 L2.66666667,10 C2.66666667,9.63333333 2.96666667,9.33333333 3.33333333,9.33333333 C3.7,9.33333333 4,9.63333333 4,10 L4,11.06 L6.19333333,8.86 C6.45333333,8.6 6.88,8.6 7.14,8.86 Z M8.86,9.80666667 C8.6,9.54666667 8.6,9.12 8.86,8.86 C9.12,8.6 9.54666667,8.6 9.80666667,8.86 L12,11.06 L12,10 C12,9.63333333 12.3,9.33333333 12.6666667,9.33333333 C13.0333333,9.33333333 13.3333333,9.63333333 13.3333333,10 L13.3333333,12.6666667 C13.3333333,13.0333333 13.0333333,13.3333333 12.6666667,13.3333333 L10,13.3333333 C9.63333333,13.3333333 9.33333333,13.0333333 9.33333333,12.6666667 C9.33333333,12.3 9.63333333,12 10,12 L11.06,12 L8.86,9.80666667 Z"></path>
            </g>
        </g>
    </g>
</svg>