<?xml version="1.0" encoding="UTF-8"?>
<svg width="24px" height="24px" viewBox="0 0 24 24" version="1.1" xmlns="http://www.w3.org/2000/svg" xmlns:xlink="http://www.w3.org/1999/xlink">
    <title>隐藏</title>
    <g id="页面-1" stroke="none" stroke-width="1" fill="none" fill-rule="evenodd">
        <g id="应用中心-CMDB-切图" transform="translate(-514.000000, -400.000000)">
            <g id="隐藏" transform="translate(514.000000, 400.000000)">
                <circle id="椭圆形" fill="#5C5C8D" cx="12" cy="12" r="12"></circle>
                <g id="eye" transform="translate(6.000000, 8.000000)" stroke="#FFFFFF" stroke-linecap="round" stroke-linejoin="round">
                    <path d="M0,4.5 C0,4.5 2.18181818,0 6,0 C9.81818182,0 12,4.5 12,4.5 C12,4.5 9.81818182,9 6,9 C2.18181818,9 0,4.5 0,4.5 Z" id="Shape"></path>
                    <ellipse id="Oval" cx="6" cy="4.5" rx="1.63636364" ry="1.6875"></ellipse>
                </g>
                <path d="M7.66696456,6.49860668 C7.94745802,6.49860668 8.22501507,6.58526651 8.43830711,6.74523776 L8.43830711,6.74523776 L9.58019195,7.60166332 L10.55769,8.33429701 L16.9097581,13.0989142 L18.2384432,14.0954419 L19.1051219,14.74546 C19.3829319,14.9538203 19.500622,15.2322836 19.500622,15.4989678 C19.500622,15.8440497 19.303566,16.208854 18.8175264,16.415977 L18.8175264,16.415977 L15.7950009,14.9268803 L14.4703939,13.9334112 L9.55565896,10.2473088 L6.89562201,8.2522534 C6.61781205,8.04389303 6.50012196,7.76542981 6.50012196,7.49874558 C7.1186643,6.48046061 7.40961635,6.49860668 7.66696456,6.49860668 Z" id="Path" stroke="#5C5C8D" fill="#FFFFFF" transform="translate(13.000372, 11.498794) rotate(11.000000) translate(-13.000372, -11.498794) "></path>
            </g>
        </g>
    </g>
</svg>