<?xml version="1.0" encoding="UTF-8"?>
<svg width="16px" height="16px" viewBox="0 0 16 16" version="1.1" xmlns="http://www.w3.org/2000/svg" xmlns:xlink="http://www.w3.org/1999/xlink">
    
    <g id="页面-1" stroke="none" stroke-width="1" fill="none" fill-rule="evenodd">
        <g id="应用中心-CMDB-切图" transform="translate(-539.000000, -487.000000)" fill="#595AEC">
            <g id="适用于画布" transform="translate(539.000000, 487.000000)">
                <path d="M2,14.6666667 C1.63333333,14.6666667 1.33333333,14.3666667 1.33333333,14 L1.33333333,2 C1.33333333,1.63333333 1.63333333,1.33333333 2,1.33333333 L14,1.33333333 C14.3666667,1.33333333 14.6666667,1.63333333 14.6666667,2 L14.6666667,14 C14.6666667,14.3666667 14.3666667,14.6666667 14,14.6666667 L2,14.6666667 Z M0,14 C0,15.1066667 0.893333333,16 2,16 L14,16 C15.1066667,16 16,15.1066667 16,14 L16,2 C16,0.893333333 15.1066667,0 14,0 L2,0 C0.893333333,0 0,0.893333333 0,2 L0,14 Z M2.86,2.86 C2.6,3.12 2.6,3.54666667 2.86,3.80666667 L5.06,6 L4,6 C3.63333333,6 3.33333333,6.3 3.33333333,6.66666667 C3.33333333,7.03333333 3.63333333,7.33333333 4,7.33333333 L6.66666667,7.33333333 C7.03333333,7.33333333 7.33333333,7.03333333 7.33333333,6.66666667 L7.33333333,4 C7.33333333,3.63333333 7.03333333,3.33333333 6.66666667,3.33333333 C6.3,3.33333333 6,3.63333333 6,4 L6,5.06 L3.80666667,2.86 C3.54666667,2.6 3.12,2.6 2.86,2.86 Z M13.14,3.80666667 C13.4,3.54666667 13.4,3.12 13.14,2.86 C12.88,2.6 12.4533333,2.6 12.1933333,2.86 L10,5.06 L10,4 C10,3.63333333 9.7,3.33333333 9.33333333,3.33333333 C8.96666667,3.33333333 8.66666667,3.63333333 8.66666667,4 L8.66666667,6.66666667 C8.66666667,7.03333333 8.96666667,7.33333333 9.33333333,7.33333333 L12,7.33333333 C12.3666667,7.33333333 12.6666667,7.03333333 12.6666667,6.66666667 C12.6666667,6.3 12.3666667,6 12,6 L10.94,6 L13.14,3.80666667 Z M2.86,13.14 C2.6,12.88 2.6,12.4533333 2.86,12.1933333 L5.06,10 L4,10 C3.63333333,10 3.33333333,9.7 3.33333333,9.33333333 C3.33333333,8.96666667 3.63333333,8.66666667 4,8.66666667 L6.66666667,8.66666667 C7.03333333,8.66666667 7.33333333,8.96666667 7.33333333,9.33333333 L7.33333333,12 C7.33333333,12.3666667 7.03333333,12.6666667 6.66666667,12.6666667 C6.3,12.6666667 6,12.3666667 6,12 L6,10.94 L3.80666667,13.14 C3.54666667,13.4 3.12,13.4 2.86,13.14 Z M13.14,12.1933333 C13.4,12.4533333 13.4,12.88 13.14,13.14 C12.88,13.4 12.4533333,13.4 12.1933333,13.14 L10,10.94 L10,12 C10,12.3666667 9.7,12.6666667 9.33333333,12.6666667 C8.96666667,12.6666667 8.66666667,12.3666667 8.66666667,12 L8.66666667,9.33333333 C8.66666667,8.96666667 8.96666667,8.66666667 9.33333333,8.66666667 L12,8.66666667 C12.3666667,8.66666667 12.6666667,8.96666667 12.6666667,9.33333333 C12.6666667,9.7 12.3666667,10 12,10 L10.94,10 L13.14,12.1933333 Z"></path>
            </g>
        </g>
    </g>
</svg>