<?xml version="1.0" encoding="UTF-8"?>
<svg width="18px" height="15px" viewBox="0 0 18 15" version="1.1" xmlns="http://www.w3.org/2000/svg" xmlns:xlink="http://www.w3.org/1999/xlink">
    <title>三角形</title>
    <g id="页面-1" stroke="none" stroke-width="1" fill="none" fill-rule="evenodd">
        <g id="应用中心-告警-切图" transform="translate(-289.000000, -310.000000)">
            <g id="编组-12" transform="translate(285.702035, 308.000000)">
                <path d="M23.2979646,4.21180021 L23.2979646,19 L23.2979646,19 L5.61696322,19 C4.51239372,19 3.61696322,18.1045695 3.61696322,17 C3.61696322,16.3990162 3.88721645,15.8298899 4.3529588,15.4500668 L20.0339602,2.66186704 C20.8899646,1.96377667 22.1498074,2.09179134 22.8478977,2.94779579 C23.1389912,3.30473711 23.2979646,3.7512109 23.2979646,4.21180021 Z" id="三角形" fill="#B8B8D5"></path>
                <path d="M18.4950945,9.24320513 C18.7749889,8.9378658 19.2494146,8.91723859 19.5547539,9.19713298 C19.8600932,9.47702737 19.8807204,9.95145303 19.600826,10.2567924 L15.4758248,14.7567937 C15.1690038,15.0915075 14.6374765,15.0789587 14.3467929,14.7301385 L12.4717924,12.4801378 C12.2066193,12.1619301 12.2496123,11.6890064 12.5678201,11.4238333 C12.8860278,11.1586601 13.3589515,11.2016532 13.6241246,11.519861 L14.9498558,13.1107383 L18.4950945,9.24320513 Z" id="Path" fill="#FFFFFF" fill-rule="nonzero"></path>
            </g>
        </g>
    </g>
</svg>