<?xml version="1.0" encoding="UTF-8"?>
<svg width="36px" height="36px" viewBox="0 0 36 36" version="1.1" xmlns="http://www.w3.org/2000/svg" xmlns:xlink="http://www.w3.org/1999/xlink">
    <title>椭圆形@1x</title>
    <g id="页面-1" stroke="none" stroke-width="1" fill="none" fill-rule="evenodd">
        <g id="应用中心-CMDB-模型-CI模型-新建模型" transform="translate(-1087.000000, -291.000000)">
            <g id="编组-8" transform="translate(1000.000000, 291.000000)">
                <g transform="translate(87.000000, 0.000000)">
                    <circle id="椭圆形" fill="#EDEDFD" cx="18" cy="18" r="18"></circle>
                    <path d="M22.2,12 C23.1941125,12 24,12.8058875 24,13.8 L24,22.2 C24,23.1941125 23.1941125,24 22.2,24 L13.8,24 C12.8058875,24 12,23.1941125 12,22.2 L12,13.8 C12,12.8058875 12.8058875,12 13.8,12 L22.2,12 Z M21.6125847,17.2977724 C20.8495568,16.7276925 19.7769585,16.7727096 19.0633705,17.4286512 L19.0633705,17.4286512 L17.3235493,19.0279226 L16.863776,18.7537144 L16.7108546,18.6712439 C15.9859216,18.3199023 15.1126317,18.4368996 14.5043334,18.9822066 L14.5043334,18.9822066 L13.2,20.1514719 L13.2,21.8 L13.2067277,21.9166211 C13.2644928,22.4139598 13.6871642,22.8 14.2,22.8 L14.2,22.8 L21.8,22.8 L21.9166211,22.7932723 C22.4139598,22.7355072 22.8,22.3128358 22.8,21.8 L22.8,21.8 L22.8,18.3514719 L21.7518614,17.4118716 Z M15.3,14.4 C14.8029437,14.4 14.4,14.8029437 14.4,15.3 C14.4,15.7970563 14.8029437,16.2 15.3,16.2 C15.7970563,16.2 16.2,15.7970563 16.2,15.3 C16.2,14.8029437 15.7970563,14.4 15.3,14.4 Z" id="Color" fill="#8787F8" fill-rule="nonzero"></path>
                </g>
            </g>
        </g>
    </g>
</svg>