<?xml version="1.0" encoding="UTF-8"?>
<svg width="20px" height="20px" viewBox="0 0 20 20" version="1.1" xmlns="http://www.w3.org/2000/svg" xmlns:xlink="http://www.w3.org/1999/xlink">
    <title>Rectangle </title>
    <g id="页面-1" stroke="none" stroke-width="1" fill="none" fill-rule="evenodd">
        <g id="应用中心-CMDB-模型-CI模型-模型详情-模型字段" transform="translate(-1364.000000, -309.000000)">
            <rect id="bg" fill="#F5F6FA" x="0" y="-1" width="1440" height="1609"></rect>
            <g id="CI模型" transform="translate(250.000000, 100.000000)">
                <g id="内容" transform="translate(0.000000, 130.000000)">
                    <rect id="矩形" fill="#FFFFFF" x="0" y="0" width="1180" height="650" rx="8"></rect>
                    <g id="编组-9" transform="translate(10.000000, 12.000000)">
                        <g id="编组-14" transform="translate(0.000000, 57.000000)">
                            <rect id="矩形" stroke="#EDEDFD" fill="#FFFFFF" x="0.5" y="0.5" width="1159" height="159" rx="4"></rect>
                            <g id="编组-23" transform="translate(1104.000000, 10.000000)" fill="#595AEC">
                                <path d="M6.5,18 C5.34019772,18 4.4,17.0231712 4.4,15.8181824 L4.4,6.36363648 L3.7,6.36363648 C3.31342774,6.36363648 3,6.0380416 3,5.63636368 C3,5.23468592 3.31342774,4.90909104 3.7,4.90909104 L6.5,4.90909104 L6.5,4.18181824 C6.5,2.97682888 7.440198,2 8.6,2 L11.4,2 C12.559802,2 13.5,2.97682888 13.5,4.18181824 L13.5,4.90909104 L16.3,4.90909104 C16.6865722,4.90909104 17,5.23468592 17,5.63636368 C17,6.0380416 16.6865722,6.36363648 16.3,6.36363648 L15.6000006,6.36363648 L15.6000006,15.8181824 C15.6000006,17.0231712 14.659802,18 13.5,18 L6.5,18 Z M5.8,15.8181821 C5.8,16.2198604 6.11342776,16.5454545 6.50000002,16.5454545 L13.5000003,16.5454545 C13.8865725,16.5454545 14.2,16.2198604 14.2,15.8181821 L14.2,6.36363636 L5.8,6.36363636 L5.8,15.8181821 Z M12.1,4.90909091 L12.1,4.18181818 C12.1,3.78014028 11.7865725,3.45454545 11.4,3.45454545 L8.60000001,3.45454545 C8.21342776,3.45454545 7.9,3.78014028 7.9,4.18181818 L7.9,4.90909091 L12.1,4.90909091 Z M10.7,13.6363636 L10.7,9.27272727 C10.7,8.87104937 11.0134277,8.54545455 11.4,8.54545455 C11.7865723,8.54545455 12.1,8.87104937 12.1,9.27272727 L12.1,13.6363636 C12.1,14.0380416 11.7865723,14.3636364 11.4,14.3636364 C11.0134277,14.3636364 10.7,14.0380416 10.7,13.6363636 L10.7,13.6363636 Z M7.9,13.6363636 L7.9,9.27272727 C7.9,8.87104937 8.21342773,8.54545455 8.6,8.54545455 C8.98657227,8.54545455 9.3,8.87104937 9.3,9.27272727 L9.3,13.6363636 C9.3,14.0380416 8.98657227,14.3636364 8.6,14.3636364 C8.21342773,14.3636364 7.9,14.0380416 7.9,13.6363636 L7.9,13.6363636 Z" id="Form_43-2"></path>
                            </g>
                        </g>
                    </g>
                </g>
            </g>
        </g>
    </g>
</svg>