<?xml version="1.0" encoding="UTF-8"?>
<svg width="20px" height="20px" viewBox="0 0 20 20" version="1.1" xmlns="http://www.w3.org/2000/svg" xmlns:xlink="http://www.w3.org/1999/xlink">
    <title>Rectangle 2</title>
    <g id="页面-1" stroke="none" stroke-width="1" fill="none" fill-rule="evenodd">
        <g id="应用中心-CMDB-模型-CI模型-模型详情-模型字段" transform="translate(-455.000000, -125.000000)">
            <rect id="bg" fill="#F5F6FA" x="0" y="-1" width="1440" height="1609"></rect>
            <g id="编组-4" transform="translate(250.000000, 100.000000)">
                <rect id="矩形" fill="#FFFFFF" x="0" y="0" width="1180" height="120" rx="8"></rect>
                <g id="编组-3" transform="translate(20.000000, 20.000000)">
                    <g id="常规输入框"></g>
                    <g id="编组-20" transform="translate(185.000000, 5.000000)" fill="#595AEC">
                        <path d="M3.82354142,17.0004517 C3.36869374,17.0004517 3.0000002,16.6317073 3.0000002,16.1768849 L3.0000002,13.7062616 C2.9998494,13.4879358 3.08630514,13.2785317 3.24046779,13.1239921 L13.1229631,3.24152315 C13.2774769,3.086883 13.4870821,3 13.7056337,3 C13.9241859,3 14.1337911,3.086883 14.2883056,3.24152315 L16.7588786,5.71214665 C17.0803738,6.03374192 17.0803738,6.55504006 16.7588786,6.87663548 L6.87638448,16.7591292 C6.72202049,16.9135936 6.51261689,17.0004517 6.29421536,17.0004517 L3.82354142,17.0004517 Z M4.64708261,14.0472093 L4.64708261,15.3533446 L5.95321785,15.3533446 L12.5415478,8.76501464 L11.2354125,7.4588794 L4.64708261,14.0472093 Z M12.3999004,6.29439098 L13.7060356,7.6005261 L15.0113664,6.29439098 L13.7060356,4.98825586 L12.3999004,6.29439098 Z" id="Form_24"></path>
                    </g>
                </g>
            </g>
        </g>
    </g>
</svg>