<?xml version="1.0" encoding="UTF-8"?>
<svg width="24px" height="24px" viewBox="0 0 24 24" version="1.1" xmlns="http://www.w3.org/2000/svg" xmlns:xlink="http://www.w3.org/1999/xlink">
    <title>Rectangle 2</title>
    <g id="页面-1" stroke="none" stroke-width="1" fill="none" fill-rule="evenodd">
        <g id="应用中心-CMDB-模型-CI模型-切icon" transform="translate(-65.000000, -123.000000)" stroke="#302E6D">
            <g id="左侧导航" transform="translate(0.000000, 60.000000)">
                <g id="二级" transform="translate(50.000000, 0.000000)">
                    <g id="二级菜单" transform="translate(0.000000, 50.000000)">
                        <g id="discover" transform="translate(15.000000, 13.000000)">
                            <g id="Group-991" transform="translate(3.000000, 3.000000)">
                                <path d="M9,18 C13.9705627,18 18,13.9705627 18,9 C18,4.02943725 13.9705627,0 9,0 C4.02943725,0 0,4.02943725 0,9 C0,13.9705627 4.02943725,18 9,18 Z" id="Ellipse-89" stroke-width="1.5" stroke-dasharray="0,0"></path>
                                <g id="share" transform="translate(4.000000, 4.000000)" stroke-linejoin="round" stroke-width="1.2">
                                    <ellipse id="Oval-3" stroke-linecap="round" cx="6.5" cy="1.57894737" rx="1.5" ry="1.57894737"></ellipse>
                                    <ellipse id="Oval-3-Copy" stroke-linecap="round" cx="1.5" cy="5.26315789" rx="1.5" ry="1.57894737"></ellipse>
                                    <ellipse id="Oval-3-Copy-2" stroke-linecap="round" cx="6.5" cy="8.42105263" rx="1.5" ry="1.57894737"></ellipse>
                                    <line x1="3" y1="4.21052632" x2="5" y2="2.63157895" id="Line" stroke-linecap="square"></line>
                                    <line x1="3" y1="6.31578947" x2="5" y2="7.36842105" id="Line" stroke-linecap="square"></line>
                                </g>
                            </g>
                        </g>
                    </g>
                </g>
            </g>
        </g>
    </g>
</svg>