<?xml version="1.0" encoding="UTF-8"?>
<svg width="36px" height="36px" viewBox="0 0 36 36" version="1.1" xmlns="http://www.w3.org/2000/svg" xmlns:xlink="http://www.w3.org/1999/xlink">
    <title>设备</title>
    <g id="页面-1" stroke="none" stroke-width="1" fill="none" fill-rule="evenodd">
        <g id="应用中心-CMDB-切图" transform="translate(-868.000000, -564.000000)">
            <g id="空间维度-默认" transform="translate(248.000000, 564.000000)">
                <g id="编组-8" transform="translate(620.000000, 0.000000)">
                    <circle id="椭圆形" fill="#EDEDFD" cx="18" cy="18" r="18"></circle>
                    <g id="wangluoshebei" transform="translate(10.000000, 10.000000)" fill="#595AEC" fill-rule="nonzero">
                        <path d="M15.9982145,9.16962195 L14.8162035,0.492472399 C14.7769222,0.210549794 14.5358777,0 14.2501953,0 L1.78194398,0 C1.49804709,0 1.25700257,0.208765473 1.21593572,0.490688079 L0,9.16962195 L0.0124986051,9.16962195 L0,9.18389651 L0,15.3469388 C0,15.7073715 0.292824462,16 0.653498493,16 L15.3465015,16 C15.7071755,16 16,15.7073715 16,15.3469388 L16,9.18389651 L15.9875014,9.16962195 L15.9982145,9.16962195 Z M13.8554849,14.858035 L2.14272961,14.858035 C1.59044486,14.858035 1.14272961,14.4103198 1.14272961,13.858035 L1.14272961,10.1696219 C1.14272961,9.6173372 1.59044486,9.16962195 2.14272961,9.16962195 L13.8554849,9.16962195 C14.4077696,9.16962195 14.8554849,9.6173372 14.8554849,10.1696219 L14.8554849,13.858035 C14.8554849,14.4103198 14.4077696,14.858035 13.8554849,14.858035 Z" id="形状"></path>
                        <path d="M2.67113045,11.4915746 L4.18524718,11.4915746 C4.39772347,11.4915746 4.57091842,11.3183796 4.57091842,11.1059034 L4.57091842,10.7452293 C4.57091842,10.532753 4.39772347,10.3595581 4.18524718,10.3595581 L2.67113045,10.3595581 C2.45865417,10.3595581 2.28545921,10.532753 2.28545921,10.7452293 L2.28545921,11.1059034 C2.28545921,11.3183796 2.45865417,11.4915746 2.67113045,11.4915746 L2.67113045,11.4915746 Z M2.67113045,13.7681062 L4.18524718,13.7681062 C4.39772347,13.7681062 4.57091842,13.5949113 4.57091842,13.382435 L4.57091842,13.021761 C4.57091842,12.8092847 4.39772347,12.6360897 4.18524718,12.6360897 L2.67113045,12.6360897 C2.45865417,12.6360897 2.28545921,12.8092847 2.28545921,13.021761 L2.28545921,13.382435 C2.28545921,13.5966968 2.45865417,13.7681062 2.67113045,13.7681062 L2.67113045,13.7681062 Z M6.26180114,11.4915746 L6.27429974,11.4915746 C6.58676487,11.4915746 6.840308,11.2380315 6.840308,10.9255663 L6.840308,10.9237808 C6.840308,10.6113157 6.58676487,10.3577726 6.27429974,10.3577726 L6.26180114,10.3577726 C5.94933601,10.3577726 5.69579288,10.6113157 5.69579288,10.9237808 L5.69579288,10.9255663 C5.69579288,11.2380315 5.94933601,11.4915746 6.26180114,11.4915746 Z M6.26180114,13.7681062 L6.27429974,13.7681062 C6.58676487,13.7681062 6.840308,13.5145631 6.840308,13.202098 L6.840308,13.2003125 C6.840308,12.8878473 6.58676487,12.6343042 6.27429974,12.6343042 L6.26180114,12.6343042 C5.94933601,12.6343042 5.69579288,12.8878473 5.69579288,13.2003125 L5.69579288,13.202098 C5.69579288,13.5163486 5.94933601,13.7681062 6.26180114,13.7681062 Z M8.54726035,11.4915746 L8.55975896,11.4915746 C8.87222408,11.4915746 9.12576721,11.2380315 9.12576721,10.9255663 L9.12576721,10.9237808 C9.12576721,10.6113157 8.87222408,10.3577726 8.55975896,10.3577726 L8.54726035,10.3577726 C8.23479522,10.3577726 7.98125209,10.6113157 7.98125209,10.9237808 L7.98125209,10.9255663 C7.98125209,11.2380315 8.23479522,11.4915746 8.54726035,11.4915746 Z M8.54726035,13.7681062 L8.55975896,13.7681062 C8.87222408,13.7681062 9.12576721,13.5145631 9.12576721,13.202098 L9.12576721,13.2003125 C9.12576721,12.8878473 8.87222408,12.6343042 8.55975896,12.6343042 L8.54726035,12.6343042 C8.23479522,12.6343042 7.98125209,12.8878473 7.98125209,13.2003125 L7.98125209,13.202098 C7.98125209,13.5163486 8.23479522,13.7681062 8.54726035,13.7681062 Z M10.8148644,11.4915746 L10.827363,11.4915746 C11.1398281,11.4915746 11.3933713,11.2380315 11.3933713,10.9255663 L11.3933713,10.9237808 C11.3933713,10.6113157 11.1398281,10.3577726 10.827363,10.3577726 L10.8148644,10.3577726 C10.5023993,10.3577726 10.2488562,10.6113157 10.2488562,10.9237808 L10.2488562,10.9255663 C10.2488562,11.2380315 10.5023993,11.4915746 10.8148644,11.4915746 Z M10.8148644,13.7681062 L10.827363,13.7681062 C11.1398281,13.7681062 11.3933713,13.5145631 11.3933713,13.202098 L11.3933713,13.2003125 C11.3933713,12.8878473 11.1398281,12.6343042 10.827363,12.6343042 L10.8148644,12.6343042 C10.5023993,12.6343042 10.2488562,12.8878473 10.2488562,13.2003125 L10.2488562,13.202098 C10.2488562,13.5163486 10.5023993,13.7681062 10.8148644,13.7681062 Z M13.1003236,11.4915746 L13.1128222,11.4915746 C13.4252874,11.4915746 13.6788305,11.2380315 13.6788305,10.9255663 L13.6788305,10.9237808 C13.6788305,10.6113157 13.4252874,10.3577726 13.1128222,10.3577726 L13.1003236,10.3577726 C12.7878585,10.3577726 12.5343154,10.6113157 12.5343154,10.9237808 L12.5343154,10.9255663 C12.5343154,11.2380315 12.7878585,11.4915746 13.1003236,11.4915746 Z M13.1003236,13.7681062 L13.1128222,13.7681062 C13.4252874,13.7681062 13.6788305,13.5145631 13.6788305,13.202098 L13.6788305,13.2003125 C13.6788305,12.8878473 13.4252874,12.6343042 13.1128222,12.6343042 L13.1003236,12.6343042 C12.7878585,12.6343042 12.5343154,12.8878473 12.5343154,13.2003125 L12.5343154,13.202098 C12.5343154,13.5163486 12.7878585,13.7681062 13.1003236,13.7681062 Z" id="形状"></path>
                    </g>
                </g>
            </g>
        </g>
    </g>
</svg>