<?xml version="1.0" encoding="UTF-8"?>
<svg width="36px" height="36px" viewBox="0 0 36 36" version="1.1" xmlns="http://www.w3.org/2000/svg" xmlns:xlink="http://www.w3.org/1999/xlink">
    <title>数据中心</title>
    <g id="页面-1" stroke="none" stroke-width="1" fill="none" fill-rule="evenodd">
        <g id="应用中心-CMDB-切图" transform="translate(-406.000000, -564.000000)">
            <g id="空间维度-默认" transform="translate(248.000000, 564.000000)">
                <g id="数据中心" transform="translate(152.000000, 0.000000)">
                    <g id="编组-8" transform="translate(6.000000, 0.000000)">
                        <circle id="椭圆形" fill="#EDEDFD" cx="18" cy="18" r="18"></circle>
                        <path d="M14.1818182,12.7592593 L9.69090909,12.7592593 C9.31090909,12.7592593 9,13.0759259 9,13.462963 L9,25.0740741 C9,25.4611111 9.31090909,25.7777778 9.69090909,25.7777778 L14.1818182,25.7777778 C14.5618182,25.7777778 14.8727273,25.4611111 14.8727273,25.0740741 L14.8727273,13.462963 C14.8727273,13.0759259 14.5618182,12.7592593 14.1818182,12.7592593 Z M11.9363636,14.5185185 C12.42,14.5185185 12.8,14.9055556 12.8,15.3981481 C12.8,15.8907407 12.42,16.2777778 11.9363636,16.2777778 C11.4527273,16.2777778 11.0727273,15.8907407 11.0727273,15.3981481 C11.0727273,14.9055556 11.4527273,14.5185185 11.9363636,14.5185185 L11.9363636,14.5185185 Z M11.9363636,17.3333333 C12.42,17.3333333 12.8,17.7203704 12.8,18.212963 C12.8,18.7055556 12.42,19.0925926 11.9363636,19.0925926 C11.4527273,19.0925926 11.0727273,18.7055556 11.0727273,18.212963 C11.0727273,17.7203704 11.4527273,17.3333333 11.9363636,17.3333333 L11.9363636,17.3333333 Z M13.4909091,24.3703704 L10.3818182,24.3703704 L10.3818182,23.3148148 L13.4909091,23.3148148 L13.4909091,24.3703704 Z M13.4909091,22.6111111 L10.3818182,22.6111111 L10.3818182,21.5555556 L13.4909091,21.5555556 L13.4909091,22.6111111 Z M20.7454545,11 L16.2545455,11 C15.8745455,11 15.5636364,11.3166667 15.5636364,11.7037037 L15.5636364,25.0740741 C15.5636364,25.4611111 15.8745455,25.7777778 16.2545455,25.7777778 L20.7454545,25.7777778 C21.1254545,25.7777778 21.4363636,25.4611111 21.4363636,25.0740741 L21.4363636,11.7037037 C21.4363636,11.3166667 21.1254545,11 20.7454545,11 Z M18.5,12.7592593 C18.9836364,12.7592593 19.3636364,13.1462963 19.3636364,13.6388889 C19.3636364,14.1314815 18.9836364,14.5185185 18.5,14.5185185 C18.0163636,14.5185185 17.6363636,14.1314815 17.6363636,13.6388889 C17.6363636,13.1462963 18.0163636,12.7592593 18.5,12.7592593 Z M18.5,15.5740741 C18.9836364,15.5740741 19.3636364,15.9611111 19.3636364,16.4537037 C19.3636364,16.9462963 18.9836364,17.3333333 18.5,17.3333333 C18.0163636,17.3333333 17.6363636,16.9462963 17.6363636,16.4537037 C17.6363636,15.9611111 18.0163636,15.5740741 18.5,15.5740741 Z M20.0545455,24.3703704 L16.9454545,24.3703704 L16.9454545,23.3148148 L20.0545455,23.3148148 L20.0545455,24.3703704 Z M20.0545455,22.6111111 L16.9454545,22.6111111 L16.9454545,21.5555556 L20.0545455,21.5555556 L20.0545455,22.6111111 Z M20.0545455,20.8518519 L16.9454545,20.8518519 L16.9454545,19.7962963 L20.0545455,19.7962963 L20.0545455,20.8518519 Z M27.3090909,12.7592593 L22.8181818,12.7592593 C22.4381818,12.7592593 22.1272727,13.0759259 22.1272727,13.462963 L22.1272727,25.0740741 C22.1272727,25.4611111 22.4381818,25.7777778 22.8181818,25.7777778 L27.3090909,25.7777778 C27.6890909,25.7777778 28,25.4611111 28,25.0740741 L28,13.462963 C28,13.0759259 27.6890909,12.7592593 27.3090909,12.7592593 Z M25.0636364,14.5185185 C25.5472727,14.5185185 25.9272727,14.9055556 25.9272727,15.3981481 C25.9272727,15.8907407 25.5472727,16.2777778 25.0636364,16.2777778 C24.58,16.2777778 24.2,15.8907407 24.2,15.3981481 C24.2,14.9055556 24.58,14.5185185 25.0636364,14.5185185 Z M25.0636364,17.3333333 C25.5472727,17.3333333 25.9272727,17.7203704 25.9272727,18.212963 C25.9272727,18.7055556 25.5472727,19.0925926 25.0636364,19.0925926 C24.58,19.0925926 24.2,18.7055556 24.2,18.212963 C24.2,17.7203704 24.58,17.3333333 25.0636364,17.3333333 Z M26.6181818,24.3703704 L23.5090909,24.3703704 L23.5090909,23.3148148 L26.6181818,23.3148148 L26.6181818,24.3703704 Z M26.6181818,22.6111111 L23.5090909,22.6111111 L23.5090909,21.5555556 L26.6181818,21.5555556 L26.6181818,22.6111111 Z" id="形状" fill="#595AEC" fill-rule="nonzero"></path>
                    </g>
                </g>
            </g>
        </g>
    </g>
</svg>