<?xml version="1.0" encoding="UTF-8"?>
<svg width="36px" height="36px" viewBox="0 0 36 36" version="1.1" xmlns="http://www.w3.org/2000/svg" xmlns:xlink="http://www.w3.org/1999/xlink">
    <title>机柜</title>
    <g id="页面-1" stroke="none" stroke-width="1" fill="none" fill-rule="evenodd">
        <g id="应用中心-CMDB-切图" transform="translate(-792.000000, -564.000000)">
            <g id="空间维度-默认" transform="translate(248.000000, 564.000000)">
                <g id="编组-8" transform="translate(544.000000, 0.000000)">
                    <circle id="椭圆形" fill="#EDEDFD" cx="18" cy="18" r="18"></circle>
                    <g id="jigui-2" transform="translate(11.000000, 11.000000)" fill="#595AEC" fill-rule="nonzero">
                        <path d="M0.000434816775,7.51822507 C0.000434816775,5.48689195 -0.000175377335,3.45557976 0.000687310889,1.42418383 C0.00112917559,0.444119243 0.432326,0.00221923536 1.40123008,0.00163302225 C5.13425705,-0.00054434075 8.86728498,-0.00054434075 12.600312,0.00163302225 C13.5505736,0.00213549063 13.997425,0.442737455 13.997951,1.38633121 C14.0007074,5.50703256 14.0006022,9.62777578 13.9981194,13.7484353 C13.9976354,14.6446504 13.5613677,15.0918054 12.6586171,15.0933338 C8.88178905,15.0995309 5.10502417,15.0997193 1.32825928,15.0932291 C0.423088923,15.0916379 0.00190769911,14.649717 0.00108709324,13.7427197 C-0.000890777325,11.6679021 0.000434816776,9.59308452 0.000434816776,7.51822507 L0.000434816775,7.51822507 Z M1.1568789,7.56304944 C1.1568789,9.43533039 1.15481687,11.3075695 1.15807825,13.1798504 C1.15915135,13.7864763 1.32487165,13.9597023 1.93834819,13.9605816 C5.30781902,13.965355 8.67737402,13.9652504 12.0468449,13.9607491 C12.6822253,13.9598698 12.8461571,13.786581 12.8465148,13.151105 C12.8483874,9.42111472 12.8485558,5.69099879 12.8461571,1.96100849 C12.8457152,1.32741679 12.6772595,1.16369584 12.0396488,1.16344461 C8.68471739,1.16191627 5.32987017,1.16191627 1.97498087,1.16336086 C1.31056365,1.16363303 1.15769951,1.31977508 1.15727868,1.98975387 C1.15597413,3.84746323 1.15679474,5.70517259 1.1568789,7.56304944 Z" id="形状"></path>
                        <path d="M11.5128188,1.64705882 L2.21262964,1.64705882 C1.90030822,1.64705882 1.64705882,1.90348495 1.64705882,2.2199257 L1.64705882,4.55993171 C1.64705882,4.87630975 1.90030822,5.13279859 2.21262964,5.13279859 L11.5128188,5.13279859 C11.8252446,5.13279859 12.0784314,4.87630975 12.0784314,4.55993171 L12.0784314,2.2199257 C12.0784314,1.90350586 11.8252446,1.64705882 11.5128188,1.64705882 Z M3.63852565,3.99862459 C3.30266315,3.99862459 3.03032188,3.72612349 3.03032188,3.38994961 C3.03032188,3.05381754 3.30266315,2.78129553 3.63852565,2.78129553 C3.97442993,2.78129553 4.24675031,3.05381754 4.24675031,3.38994961 C4.24672942,3.72612349 3.97440904,3.99862459 3.63852565,3.99862459 Z M11.5128188,5.80614973 L2.21262964,5.80614973 C1.90030822,5.80614973 1.64705882,6.06259676 1.64705882,6.37901661 L1.64705882,8.71893899 C1.64705882,9.03531704 1.90030822,9.2919313 2.21262964,9.2919313 L11.5128188,9.2919313 C11.8252446,9.2919313 12.0784314,9.03531704 12.0784314,8.71893899 L12.0784314,6.37903751 C12.0784314,6.06259676 11.8252446,5.80614973 11.5128188,5.80614973 Z M3.63852565,8.15765278 C3.30266315,8.15765278 3.03032188,7.8852771 3.03032188,7.5489987 C3.03032188,7.21290844 3.30266315,6.94038643 3.63852565,6.94038643 C3.97442993,6.94038643 4.24675031,7.21290844 4.24675031,7.5489987 C4.24672942,7.8852771 3.97440904,8.15765278 3.63852565,8.15765278 Z M11.5128188,9.96524063 L2.21262964,9.96524063 C1.90030822,9.96524063 1.64705882,10.2216668 1.64705882,10.5381284 L1.64705882,12.8780926 C1.64705882,13.1944497 1.90030822,13.4509804 2.21262964,13.4509804 L11.5128188,13.4509804 C11.8252446,13.4509804 12.0784314,13.1944497 12.0784314,12.8780926 L12.0784314,10.5381284 C12.0784314,10.2216459 11.8252446,9.96524063 11.5128188,9.96524063 Z M3.63852565,12.3167228 C3.30266315,12.3167228 3.03032188,12.0443262 3.03032188,11.7080896 C3.03032188,11.3719784 3.30266315,11.0993937 3.63852565,11.0993937 C3.97442993,11.0993937 4.24675031,11.3719784 4.24675031,11.7080896 C4.24672942,12.0443262 3.97440904,12.3167228 3.63852565,12.3167228 Z" id="形状"></path>
                    </g>
                </g>
            </g>
        </g>
    </g>
</svg>