<?xml version="1.0" encoding="UTF-8"?>
<svg width="36px" height="36px" viewBox="0 0 36 36" version="1.1" xmlns="http://www.w3.org/2000/svg" xmlns:xlink="http://www.w3.org/1999/xlink">
    <title>房间</title>
    <g id="页面-1" stroke="none" stroke-width="1" fill="none" fill-rule="evenodd">
        <g id="应用中心-CMDB-切图" transform="translate(-640.000000, -564.000000)">
            <g id="空间维度-默认" transform="translate(248.000000, 564.000000)">
                <g id="编组-8" transform="translate(392.000000, 0.000000)">
                    <circle id="椭圆形" fill="#EDEDFD" cx="18" cy="18" r="18"></circle>
                    <path d="M11.7588599,10.8613074 L18.7021063,9.02034704 C18.8871617,8.96994926 19.083913,9.01437717 19.2331894,9.14026958 C19.3824658,9.266162 19.4668507,9.45883053 19.4609662,9.66033224 L19.4609662,26.3480851 C19.4641935,26.5409195 19.3848833,26.725025 19.2450527,26.8492927 C19.1052222,26.9735605 18.9197546,27.0247635 18.7401371,26.9886875 L11.7968907,25.6278704 C11.3413377,25.5338826 11.0095384,25.1176052 11,24.6280863 L11,11.8610914 C11.0052481,11.3834168 11.318183,10.9708763 11.7588599,10.8606902 L11.7588599,10.8613074 Z M21.0921933,25.4279135 L23.9000334,25.4279135 C24.5075282,25.4279135 25,24.908455 25,24.2676704 L25,11.7006322 C25,11.0598476 24.5075282,10.540389 23.9000334,10.540389 L22.0921933,10.540389 C21.5399085,10.540389 21.0921933,10.9881043 21.0921933,11.540389 L21.0921933,25.4272964 L21.0921933,25.4272964 L21.0921933,25.4279135 Z M17.20124,13.6236427 C16.6777452,13.6236427 16.20124,14.0649126 16.20124,14.6236427 C16.20124,15.1823729 16.6300212,15.6236427 17.20124,15.6236427 C17.7724588,15.6236427 18.20124,15.1823729 18.20124,14.6236427 C18.20124,14.0649126 17.7247349,13.6236427 17.20124,13.6236427 L17.20124,13.6236427 Z" id="形状" fill="#595AEC" fill-rule="nonzero"></path>
                </g>
            </g>
        </g>
    </g>
</svg>