<?xml version="1.0" encoding="UTF-8"?>
<svg width="36px" height="36px" viewBox="0 0 36 36" version="1.1" xmlns="http://www.w3.org/2000/svg" xmlns:xlink="http://www.w3.org/1999/xlink">
    <title>列</title>
    <g id="页面-1" stroke="none" stroke-width="1" fill="none" fill-rule="evenodd">
        <g id="应用中心-CMDB-切图" transform="translate(-716.000000, -564.000000)">
            <g id="空间维度-默认" transform="translate(248.000000, 564.000000)">
                <g id="编组-8" transform="translate(468.000000, 0.000000)">
                    <circle id="椭圆形" fill="#EDEDFD" cx="18" cy="18" r="18"></circle>
                    <path d="M21.7881108,11 L18.1031299,11 C17.6572844,11 17.3127674,11.3411394 17.3127674,11.7903625 L17.3127674,23.8957442 L16.2589507,23.8957442 L16.2589507,11.7903625 C16.2589507,11.3681603 15.9178113,11 15.4685882,11 L11.7903625,11 C11.344517,11 11,11.3411394 11,11.7903625 L11,25.4730916 C11,25.8952938 11.3411394,26.2634542 11.7903625,26.2634542 L15.4753434,26.2634542 C15.9211889,26.2634542 16.2657059,25.9223148 16.2657059,25.4730916 L16.2657059,24.9461833 L17.3195226,24.9461833 L17.3195226,25.4730916 C17.3195226,25.8952938 17.660662,26.2634542 18.1098852,26.2634542 L21.794866,26.2634542 C22.2407116,26.2634542 22.5852285,25.9223148 22.5852285,25.4730916 L22.5852285,11.7903625 C22.5784733,11.3411394 22.2373339,11 21.7881108,11 Z M13.36771,24.9461833 L12.3138933,24.9461833 L12.3138933,23.8923666 L13.36771,23.8923666 L13.36771,24.9461833 Z M14.948435,13.36771 L12.3172709,13.36771 L12.3172709,12.3138933 L14.948435,12.3138933 L14.948435,13.36771 Z M19.683855,24.9461833 L18.6300383,24.9461833 L18.6300383,23.8923666 L19.683855,23.8923666 L19.683855,24.9461833 Z M21.2612024,13.36771 L18.6300383,13.36771 L18.6300383,12.3138933 L21.2612024,12.3138933 L21.2612024,13.36771 L21.2612024,13.36771 Z M25.2366584,26.2634542 C24.8144562,26.2634542 24.4733168,25.9223148 24.4733168,25.5001126 L24.4733168,11.7633416 C24.4733168,11.3411394 24.8144562,11 25.2366584,11 C25.6588606,11 26,11.3411394 26,11.7633416 L26,25.5001126 C26,25.9189372 25.655483,26.2634542 25.2366584,26.2634542 Z" id="形状" fill="#595AEC" fill-rule="nonzero"></path>
                </g>
            </g>
        </g>
    </g>
</svg>