<?xml version="1.0" encoding="UTF-8"?>
<svg width="36px" height="36px" viewBox="0 0 36 36" version="1.1" xmlns="http://www.w3.org/2000/svg" xmlns:xlink="http://www.w3.org/1999/xlink">
    <title>楼层</title>
    <g id="页面-1" stroke="none" stroke-width="1" fill="none" fill-rule="evenodd">
        <g id="应用中心-CMDB-切图" transform="translate(-564.000000, -564.000000)">
            <g id="空间维度-默认" transform="translate(248.000000, 564.000000)">
                <g id="编组-8" transform="translate(316.000000, 0.000000)">
                    <circle id="椭圆形" fill="#EDEDFD" cx="18" cy="18" r="18"></circle>
                    <g id="louceng-3" transform="translate(10.000000, 10.000000)" fill="#595AEC" fill-rule="nonzero">
                        <path d="M0.523605773,5.161349 L0.511607798,5.17634852 L7.36745346,8.55123984 L7.37945145,8.53624033 C7.75804419,8.7806274 8.24464929,8.7806274 8.62324203,8.53624033 L8.63524002,8.55123984 L15.4910857,5.17634852 L15.4790877,5.161349 C15.7864637,5.00195454 15.9851526,4.69034033 16,4.34437531 C15.9854168,3.99857977 15.7865979,3.68714352 15.4790877,3.52840158 L15.4910857,3.5124021 L8.63524002,0.137510775 L8.62324203,0.152510289 C8.4334424,0.0466806214 8.21855725,-0.00583865656 8.00134674,0.000515176711 C7.78098378,0.00401745908 7.56570166,0.0672630306 7.37845161,0.18350928 L7.36745346,0.168509766 L0.511607798,3.5124021 L0.523605773,3.52840158 C0.215657591,3.68666288 0.0166564522,3.99838465 0.00269347811,4.34437531 C0.0167174697,4.6905993 0.215647749,5.00259195 0.523605773,5.161349 Z M14.8571924,7.0312888 C14.6271631,7.00872468 14.3978803,7.08094955 14.2222993,7.23128236 L8.00134674,10.2001867 L1.76739635,7.18428387 C1.57287157,7.09092135 1.36113318,7.0388307 1.14550106,7.0312888 C0.853375291,6.97023966 0.549538955,7.04990385 0.32493156,7.24643751 C0.100324165,7.44297118 -0.0189925267,7.73357003 0.00269347811,8.0312566 C0.0166564578,8.37724724 0.215657596,8.68896901 0.523605773,8.84723031 L7.36745346,12.2381211 L7.37945145,12.2221217 C7.75766747,12.4677839 8.245026,12.4677839 8.62324203,12.2221217 L8.63524002,12.2381211 L15.4800875,8.93822739 C15.7913077,8.7524667 15.9870721,8.42150456 16,8.0592557 C15.9634846,7.46147316 15.4555056,7.00276297 14.8571924,7.02728893 L14.8571924,7.0312888 Z M14.8571924,10.6251731 C14.6271631,10.6026089 14.3978803,10.6748338 14.2222993,10.8251666 L8.00134674,13.8000708 L1.76739635,10.7781681 C1.57249035,10.6850174 1.36040114,10.6332647 1.14450123,10.626173 C0.852395178,10.5646077 0.548350965,10.6441197 0.323763603,10.8408079 C0.0991762409,11.0374962 -0.0197649529,11.3284246 0.00269347811,11.6261408 C0.0166564578,11.9721315 0.215657596,12.2838533 0.523605773,12.4421146 L7.36745346,15.8330054 L7.37945145,15.8170059 C7.56649338,15.9328956 7.78135492,15.9961191 8.00134674,16 C8.22155591,15.9966209 8.43663423,15.9329878 8.62324203,15.8160059 L8.63524002,15.8320054 L15.4800875,12.5321117 C15.7912867,12.346811 15.9871039,12.0161362 16,11.6541399 C15.9629642,11.0567549 15.4551399,10.5986287 14.8571924,10.6231731 L14.8571924,10.6251731 Z" id="形状"></path>
                    </g>
                </g>
            </g>
        </g>
    </g>
</svg>