<?xml version="1.0" encoding="UTF-8"?>
<svg width="36px" height="36px" viewBox="0 0 36 36" version="1.1" xmlns="http://www.w3.org/2000/svg" xmlns:xlink="http://www.w3.org/1999/xlink">
    <title>楼栋</title>
    <g id="页面-1" stroke="none" stroke-width="1" fill="none" fill-rule="evenodd">
        <g id="应用中心-CMDB-切图" transform="translate(-488.000000, -564.000000)">
            <g id="空间维度-默认" transform="translate(248.000000, 564.000000)">
                <g id="编组-8" transform="translate(240.000000, 0.000000)">
                    <circle id="椭圆形" fill="#EDEDFD" cx="18" cy="18" r="18"></circle>
                    <g id="loudong" transform="translate(10.500000, 8.000000)" fill-rule="nonzero">
                        <path d="M4.56521739,18.9130435 C4.56521739,19.2746926 5.87843625,19.5652174 7.49931174,19.5652174 C9.12018722,19.5652174 10.4340943,19.2734871 10.4347826,18.9130435 C10.4347826,18.5513943 9.12156375,18.2608696 7.50068826,18.2608696 C5.87981278,18.2608696 4.56590565,18.5525999 4.56521739,18.9124407 L4.56521739,18.9130435 Z" id="路径" fill="#8787F8"></path>
                        <path d="M15,7.60784872 C15,11.8104549 11.853165,14.4972807 7.5,18.9130435 C3.20520582,14.5564909 0,11.8078233 0,7.60784872 C0,3.40614989 3.35786438,0 7.5,0 C11.6421356,0 15,3.40614989 15,7.60784872 Z" id="路径" fill="#595AEC"></path>
                        <path d="M6.98961781,4.33235895 L4.47236356,4.33235895 C4.16836711,4.32875509 3.91854463,4.58289947 3.91304348,4.90141954 L3.91304348,11.5892637 C3.91854463,11.9077838 4.16836711,12.1619281 4.47236356,12.1583243 L6.98961781,12.1583243 C7.13579905,12.1605448 7.27685762,12.1018768 7.381754,11.9951657 C7.48665039,11.8884546 7.5467895,11.7424442 7.54893789,11.5892637 L7.54893789,4.90141954 C7.5467895,4.74823898 7.48665039,4.60222859 7.381754,4.4955175 C7.27685762,4.38880642 7.13579905,4.33013844 6.98961781,4.33235895 L6.98961781,4.33235895 Z M6.14090765,10.8597644 L5.3022414,10.8597644 C5.20212939,10.8648102 5.10749091,10.8117157 5.05599296,10.7216131 C5.004495,10.6315104 5.004495,10.5190221 5.05599296,10.4289195 C5.10749091,10.3388168 5.20212939,10.2857224 5.3022414,10.2907681 L6.14090765,10.2907681 C6.24101966,10.2857224 6.33565813,10.3388168 6.38715609,10.4289195 C6.43865404,10.5190221 6.43865404,10.6315104 6.38715609,10.7216131 C6.33565813,10.8117157 6.24101966,10.8648102 6.14090765,10.8597644 L6.14090765,10.8597644 Z M6.14090765,9.29486018 L5.3022414,9.29486018 C5.20212939,9.29990595 5.10749091,9.24681147 5.05599296,9.15670884 C5.004495,9.06660621 5.004495,8.95411788 5.05599296,8.86401525 C5.10749091,8.77391262 5.20212939,8.72081814 5.3022414,8.72586391 L6.14090765,8.72586391 C6.24101966,8.72081814 6.33565813,8.77391262 6.38715609,8.86401525 C6.43865404,8.95411788 6.43865404,9.06660621 6.38715609,9.15670884 C6.33565813,9.24681147 6.24101966,9.29990595 6.14090765,9.29486018 L6.14090765,9.29486018 Z M6.14090765,7.72929817 L5.3022414,7.72929817 C5.20212939,7.73434393 5.10749091,7.68124946 5.05599296,7.59114682 C5.004495,7.50104419 5.004495,7.38855587 5.05599296,7.29845324 C5.10749091,7.2083506 5.20212939,7.15525613 5.3022414,7.16030189 L6.14090765,7.16030189 C6.24101966,7.15525613 6.33565813,7.2083506 6.38715609,7.29845324 C6.43865404,7.38855587 6.43865404,7.50104419 6.38715609,7.59114682 C6.33565813,7.68124946 6.24101966,7.73434393 6.14090765,7.72929817 L6.14090765,7.72929817 Z M6.14090765,6.16439395 L5.3022414,6.16439395 C5.20212939,6.16943971 5.10749091,6.11634524 5.05599296,6.0262426 C5.004495,5.93613997 5.004495,5.82365165 5.05599296,5.73354902 C5.10749091,5.64344638 5.20212939,5.59035191 5.3022414,5.59539767 L6.14090765,5.59539767 C6.24101966,5.59035191 6.33565813,5.64344638 6.38715609,5.73354902 C6.43865404,5.82365165 6.43865404,5.93613997 6.38715609,6.0262426 C6.33565813,6.11634524 6.24101966,6.16943971 6.14090765,6.16439395 L6.14090765,6.16439395 Z M11.1810658,7.32014709 L8.66318386,7.32014709 C8.35867055,7.31575601 8.10833899,7.57071269 8.10386377,7.88980116 L8.10386377,11.5892637 C8.10601217,11.7424442 8.16615128,11.8884546 8.27104767,11.9951657 C8.37594405,12.1018768 8.51700262,12.1605448 8.66318386,12.15826 L11.1798104,12.15826 C11.4838068,12.1619281 11.7336293,11.9077838 11.7391304,11.5892637 L11.7391304,7.88980116 C11.7336325,7.57169465 11.4846778,7.31756986 11.1810658,7.32014709 L11.1810658,7.32014709 Z M10.3361221,10.8597644 L9.49682814,10.8597644 C9.39671613,10.8648102 9.30207766,10.8117157 9.2505797,10.7216131 C9.19908175,10.6315104 9.19908175,10.5190221 9.2505797,10.4289195 C9.30207766,10.3388168 9.39671613,10.2857224 9.49682814,10.2907681 L10.3361221,10.2907681 C10.4362342,10.2857224 10.5308726,10.3388168 10.5823706,10.4289195 C10.6338685,10.5190221 10.6338685,10.6315104 10.5823706,10.7216131 C10.5308726,10.8117157 10.4362342,10.8648102 10.3361221,10.8597644 Z M10.3361221,9.29486018 L9.49682814,9.29486018 C9.39671613,9.29990595 9.30207766,9.24681147 9.2505797,9.15670884 C9.19908175,9.06660621 9.19908175,8.95411788 9.2505797,8.86401525 C9.30207766,8.77391262 9.39671613,8.72081814 9.49682814,8.72586391 L10.3361221,8.72586391 C10.4362342,8.72081814 10.5308726,8.77391262 10.5823706,8.86401525 C10.6338685,8.95411788 10.6338685,9.06660621 10.5823706,9.15670884 C10.5308726,9.24681147 10.4362342,9.29990595 10.3361221,9.29486018 Z" id="形状" fill="#EDEDFD"></path>
                    </g>
                </g>
            </g>
        </g>
    </g>
</svg>