<?xml version="1.0" encoding="UTF-8"?>
<svg width="36px" height="36px" viewBox="0 0 36 36" version="1.1" xmlns="http://www.w3.org/2000/svg" xmlns:xlink="http://www.w3.org/1999/xlink">
    <title>区域</title>
    <g id="页面-1" stroke="none" stroke-width="1" fill="none" fill-rule="evenodd">
        <g id="应用中心-CMDB-切图" transform="translate(-324.000000, -564.000000)">
            <g id="空间维度-默认" transform="translate(248.000000, 564.000000)">
                <g id="编组-8" transform="translate(76.000000, 0.000000)">
                    <circle id="椭圆形" fill="#EDEDFD" cx="18" cy="18" r="18"></circle>
                    <g id="quyu" transform="translate(8.000000, 8.000000)" fill="#595AEC" fill-rule="nonzero">
                        <path d="M5.96663766,6.84502577 L2.46989336,6.84502577 C2.22419661,6.8445716 2.01440465,7.02816885 1.97445568,7.27860373 L1.18189527,11.7336087 L9.17238009,12.7689547 C7.83191772,11.0050185 6.41590679,8.76541196 5.96716231,6.84502577 L5.96663766,6.84502577 Z M15.6639604,13.6119009 L17.5638669,13.8586786 L17.3365217,12.5823359 L17.1616408,11.6010064 C16.666378,12.3294159 16.1476811,13.0097707 15.6639604,13.6119009 L15.6639604,13.6119009 Z M14.7545796,14.7075865 C14.4632279,15.0446927 14.2068525,15.309536 14.0144834,15.5443903 L13.5947692,16.0019948 L12.7497445,16.9291273 L11.8989488,15.9897102 L11.4734634,15.5321056 C11.0516225,15.0678617 10.6396791,14.5941252 10.2379296,14.1112372 L5.74471377,13.5094683 L7.21913493,19 L17.8664109,19 C18.0124053,18.9963228 18.1499549,18.9285112 18.2445516,18.8135777 C18.3391482,18.6986441 18.3818153,18.547495 18.3618486,18.3980504 L17.7791453,15.1230979 L14.7545796,14.7075865 Z M4.50935483,13.3770467 L0.972213032,12.9194421 L0.00477169851,18.3978698 C-0.0153665077,18.5493689 0.0288375517,18.7024687 0.126022384,18.8178188 C0.223207215,18.933169 0.363895282,18.9995204 0.511926409,18.9998193 L6.01892707,18.9998193 L4.52054721,13.4854409 C4.51376328,13.4497038 4.50984433,13.4134494 4.5088302,13.3770467 L4.50935483,13.3770467 Z M12.7499194,7.9829859 C14.0373851,7.9829859 15.0810823,6.90481612 15.0810823,5.57482629 C15.0810823,4.24483645 14.0373851,3.16666667 12.7499194,3.16666667 C11.4624537,3.16666667 10.4187565,4.24483645 10.4187565,5.57482629 C10.4187565,6.21350993 10.6644513,6.82601572 11.101662,7.27759937 C11.5388726,7.72918302 12.1318314,7.98285316 12.7500943,7.98280524 L12.7499194,7.9829859 Z M12.7499194,4.37092715 C13.3936522,4.37092715 13.9155008,4.91001203 13.9155008,5.57500695 C13.9155008,6.24000186 13.3936522,6.77908675 12.7499194,6.77908675 C12.1061865,6.77908675 11.584338,6.24000186 11.584338,5.57500695 C11.584338,4.91001203 12.1061865,4.37092715 12.7499194,4.37092715 L12.7499194,4.37092715 Z" id="形状"></path>
                        <path d="M12.9832421,15.2 L13.4273931,14.7448419 C13.9993311,14.1538104 18.9999097,8.93421491 18.9999097,5.87830545 C19.0117018,3.78205399 17.8675724,1.84007815 16.0011834,0.78860492 C14.1347944,-0.262868307 11.8318723,-0.262868307 9.96548327,0.78860492 C8.09909427,1.84007815 6.95496486,3.78205399 6.96675695,5.87830545 C6.96675695,8.92924826 11.9735424,14.1538104 12.5452978,14.7448419 L12.9832421,15.2 Z M12.9832421,1.22029627 C15.6327563,1.22352137 17.7797843,3.3097158 17.7831035,5.88415901 C17.7831035,7.87614085 14.6431949,11.671017 12.9832421,13.4680578 C11.3220114,11.6942539 8.18338064,7.87614085 8.18338064,5.88415901 C8.18690086,3.30985433 10.3338702,1.22387568 12.9832421,1.22065102 L12.9832421,1.22029627 Z" id="形状"></path>
                    </g>
                </g>
            </g>
        </g>
    </g>
</svg>