<?xml version="1.0" encoding="UTF-8"?>
<svg width="20px" height="20px" viewBox="0 0 20 20" version="1.1" xmlns="http://www.w3.org/2000/svg" xmlns:xlink="http://www.w3.org/1999/xlink">
    <title>Rectangle </title>
    <g id="页面-1" stroke="none" stroke-width="1" fill="none" fill-rule="evenodd">
        <g id="应用中心-CMDB-模型-CI模型-模型详情-模型字段" transform="translate(-1334.000000, -309.000000)">
            <rect id="bg" fill="#F5F6FA" x="0" y="-1" width="1440" height="1609"></rect>
            <g id="CI模型" transform="translate(250.000000, 100.000000)">
                <g id="内容" transform="translate(0.000000, 130.000000)">
                    <rect id="矩形" fill="#FFFFFF" x="0" y="0" width="1180" height="650" rx="8"></rect>
                    <g id="编组-9" transform="translate(10.000000, 12.000000)">
                        <g id="编组-14" transform="translate(0.000000, 57.000000)">
                            <rect id="矩形" stroke="#EDEDFD" fill="#FFFFFF" x="0.5" y="0.5" width="1159" height="159" rx="4"></rect>
                            <g id="编组-22" transform="translate(1074.000000, 10.000000)" fill="#595AEC" stroke="#595AEC" stroke-width="0.2">
                                <path d="M14.37154,15.675427 C14.085722,15.909788 12.9386389,16.7308974 10.8337477,16.7308974 C8.43626358,16.7308974 7.46575252,15.6936175 7.41705759,15.6398921 C7.40816547,15.6297393 7.39757962,15.6221247 7.38826407,15.6128179 C7.37894852,15.6030881 7.3713267,15.5925123 7.36116428,15.5832055 C4.60418454,13.1219925 4.302276,9.69626144 4.27517621,8.70509227 C4.2514639,7.82941145 4.35351153,7.61493311 4.65330291,7.4503728 C4.97214882,7.27565967 5.36551914,7.35011369 5.59290328,7.6098567 L5.59290328,10.3468881 C5.59290328,10.6975834 5.87702759,10.9814394 6.2280545,10.9814394 C6.57908141,10.9814394 6.86320572,10.6975834 6.86320572,10.3468881 L6.86320572,4.84109777 C6.86320572,4.50986199 7.144366,4.24081223 7.48988826,4.24081223 C7.83541053,4.24081223 8.11699424,4.50986199 8.11699424,4.84109777 L8.11699424,6.40632436 C8.11699424,6.75659669 8.40111855,7.04087568 8.75214546,7.04087568 C9.10274893,7.04087568 9.38729668,6.75659669 9.38729668,6.40632436 L9.38729668,3.86981122 C9.38729668,3.53857543 9.66803352,3.26910264 10.0135558,3.26910264 C10.3590781,3.26910264 10.6402383,3.53857543 10.6402383,3.86981122 L10.6402383,6.75278938 C10.6402383,7.10306171 10.9247861,7.3873407 11.2753895,7.3873407 C11.6264165,7.3873407 11.9105408,7.10306171 11.9105408,6.75278938 L11.9105408,4.61096716 C11.9105408,4.28015441 12.1921245,4.01025858 12.5376467,4.01025858 C12.8823221,4.01025858 13.1639058,4.28015441 13.1639058,4.61096716 L13.1639058,7.32515467 C13.1639058,7.675427 13.4484536,7.95970599 13.7990571,7.95970599 C14.150084,7.95970599 14.4342083,7.675427 14.4342083,7.32515467 L14.4342083,6.48458569 C14.4342083,6.05351383 14.7208732,5.68928137 15.0613143,5.68928137 C15.4013319,5.68928137 15.6875734,6.05351383 15.6875734,6.48458569 C15.6875734,6.50023796 15.6884202,6.51589022 15.6892671,6.53154249 C15.6939249,6.5848448 16.0589251,11.8651578 14.37154,15.675427 Z M16.9578758,6.46047274 C16.9464431,5.33308656 16.0999982,4.42017873 15.0613143,4.42017873 C14.8381645,4.42017873 14.6272943,4.46967373 14.4278568,4.547089 C14.3927117,3.54661308 13.5610871,2.74115594 12.5376467,2.74115594 C12.2200711,2.74115594 11.925361,2.82576278 11.6615615,2.96240283 C11.3367875,2.39130665 10.7240783,2 10.0135558,2 C9.23020261,2 8.55651888,2.47083708 8.26773679,3.1400772 C8.02934337,3.03389562 7.76766106,2.97170959 7.48988826,2.97170959 C6.44358248,2.97170959 5.59290328,3.8101634 5.59290328,4.84109777 L5.59290328,6.17154037 C5.09071038,6.0260166 4.53262417,6.06874306 4.04144056,6.33821585 C2.95617884,6.93469409 2.98708953,8.06419544 3.0052972,8.73935805 C3.03578446,9.85447623 3.37791925,13.697319 6.47788065,16.4939982 C6.66546198,16.6983237 7.97429693,18 10.8337477,18 C13.8435177,18 15.2908156,16.5621067 15.3509432,16.5011898 C15.3534838,16.4982285 15.3539073,16.4944212 15.3568713,16.49146 C15.4038725,16.441965 15.4457925,16.3861245 15.4754329,16.3205542 C17.316948,12.2974988 16.9896334,6.90846597 16.9578758,6.46047274 L16.9578758,6.46047274 Z" id="Fill-5"></path>
                            </g>
                        </g>
                    </g>
                </g>
            </g>
        </g>
    </g>
</svg>