<?xml version="1.0" encoding="UTF-8"?>
<svg width="32px" height="32px" viewBox="0 0 32 32" version="1.1" xmlns="http://www.w3.org/2000/svg" xmlns:xlink="http://www.w3.org/1999/xlink">
    <title>Rectangle 2@1x</title>
    <defs>
        <circle id="path-1" cx="16" cy="16" r="14"></circle>
        <filter x="-23.2%" y="-19.6%" width="146.4%" height="146.4%" filterUnits="objectBoundingBox" id="filter-2">
            <feOffset dx="0" dy="1" in="SourceAlpha" result="shadowOffsetOuter1"></feOffset>
            <feGaussianBlur stdDeviation="2" in="shadowOffsetOuter1" result="shadowBlurOuter1"></feGaussianBlur>
            <feColorMatrix values="0 0 0 0 0.360784314   0 0 0 0 0.419607843   0 0 0 0 0.752941176  0 0 0 0.2 0" type="matrix" in="shadowBlurOuter1"></feColorMatrix>
        </filter>
    </defs>
    <g id="页面-1" stroke="none" stroke-width="1" fill="none" fill-rule="evenodd">
        <g id="应用中心-CMDB-模型-CI模型-切icon" transform="translate(-9.000000, -157.000000)">
            <g id="左侧导航" transform="translate(0.000000, 60.000000)">
                <g id="CI" transform="translate(0.000000, 97.000000)">
                    <g transform="translate(9.000000, 0.000000)">
                        <g id="Avatar">
                            <use fill="black" fill-opacity="1" filter="url(#filter-2)" xlink:href="#path-1"></use>
                            <use fill="#FFFFFF" fill-rule="evenodd" xlink:href="#path-1"></use>
                        </g>
                        <path d="M15.4638298,9.12555319 C15.8212766,8.95814894 16.1787234,8.95814894 16.5361702,9.12555319 L22.3744681,12.0339787 C23.2085106,12.4730426 23.2085106,13.7264894 22.3744681,14.1655532 L21.4808511,14.5891277 L22.3744681,15.0127021 C23.2085106,15.451766 23.2085106,16.7052128 22.3744681,17.1442766 L21.4808511,17.5678511 L22.3744681,17.9914255 C23.2085106,18.4304894 23.2085106,19.6839362 22.3744681,20.123 L16.5361702,23.0314255 C16.1787234,23.1988298 15.8212766,23.1988298 15.4638298,23.0314255 L9.62553191,20.123 C8.79148936,19.6839362 8.79148936,18.4304894 9.62553191,17.9914255 L10.5191489,17.5678511 L9.62553191,17.1442766 C8.79148936,16.7052128 8.79148936,15.451766 9.62553191,15.0127021 L10.5191489,14.5891277 L9.62553191,14.1655532 C8.79148936,13.7264894 8.79148936,12.4730426 9.62553191,12.0339787 L15.4638298,9.12555319 Z M12.1276596,14.0595106 C12.1276596,14.0571277 12.0680851,14.0553404 12.0680851,14.0535532 L10.1617021,13.099766 L16,10.1913404 L21.8382979,13.099766 L19.9319149,14.0535532 C19.9319149,14.0553404 19.8723404,14.0571277 19.8723404,14.0595106 L16,16.0081915 L12.1276596,14.0595106 Z M11.8297872,15.2551702 L10.1617021,16.0784894 L12.0680851,17.0322766 L12.1276596,17.038234 L16,18.9869149 L19.8723404,17.038234 L19.9319149,17.0322766 L21.8382979,16.0784894 L20.1702128,15.2551702 L16.5361702,17.0739787 C16.1787234,17.241383 15.8212766,17.241383 15.4638298,17.0739787 L11.8297872,15.2551702 Z M10.1617021,19.0572128 L11.8297872,18.2338936 L15.4638298,20.0527021 C15.8212766,20.2201064 16.1787234,20.2201064 16.5361702,20.0527021 L20.1702128,18.2338936 L21.8382979,19.0572128 L16,21.9656383 L10.1617021,19.0572128 Z" id="Shape" fill="#595AEC"></path>
                    </g>
                </g>
            </g>
        </g>
    </g>
</svg>