<?xml version="1.0" encoding="UTF-8"?>
<svg width="32px" height="32px" viewBox="0 0 32 32" version="1.1" xmlns="http://www.w3.org/2000/svg" xmlns:xlink="http://www.w3.org/1999/xlink">
    <title>Rectangle 2@1x</title>
    <defs>
        <circle id="path-1" cx="16" cy="16" r="14"></circle>
        <filter x="-23.2%" y="-19.6%" width="146.4%" height="146.4%" filterUnits="objectBoundingBox" id="filter-2">
            <feOffset dx="0" dy="1" in="SourceAlpha" result="shadowOffsetOuter1"></feOffset>
            <feGaussianBlur stdDeviation="2" in="shadowOffsetOuter1" result="shadowBlurOuter1"></feGaussianBlur>
            <feColorMatrix values="0 0 0 0 0.360784314   0 0 0 0 0.419607843   0 0 0 0 0.752941176  0 0 0 0.2 0" type="matrix" in="shadowBlurOuter1"></feColorMatrix>
        </filter>
    </defs>
    <g id="页面-1" stroke="none" stroke-width="1" fill="none" fill-rule="evenodd">
        <g id="应用中心-CMDB-模型-CI模型-切icon" transform="translate(-9.000000, -234.000000)">
            <g id="左侧导航" transform="translate(0.000000, 60.000000)">
                <g id="模型" transform="translate(0.000000, 174.000000)">
                    <g transform="translate(9.000000, 0.000000)">
                        <g id="Avatar">
                            <use fill="black" fill-opacity="1" filter="url(#filter-2)" xlink:href="#path-1"></use>
                            <use fill="#FFFFFF" fill-rule="evenodd" xlink:href="#path-1"></use>
                        </g>
                        <path d="M21.2181818,12.1042094 L16,14.5869019 L10.7818182,12.1042094 L16,9.33351389 L21.2181818,12.1042094 Z M21.7272727,13.3308889 L16.6363636,15.748914 L16.6363636,19.5016198 L16.6363636,21.3503057 L16.6363636,21.9129783 L16.6363636,22.0016458 L16.6363636,22.0063126 L16.6363636,22.0109793 L16.6363636,22.015646 L16.6363636,22.0203127 L16.6363636,22.0243127 L16.6363636,22.0289795 L16.6363636,22.0329795 L16.6363636,22.0369795 L16.6363636,22.0409796 L16.6363636,22.0449796 L16.6363636,22.0489797 L16.6363636,22.052313 L16.6363636,22.0563131 L16.6363636,22.0596465 L16.6363636,22.0629798 L16.6363636,22.0663132 L16.6363636,22.1063136 L16.6363636,22.1163137 L16.6363636,22.1169804 L16.6363636,22.1176471 L16.6363636,22.1183137 L16.6363636,22.1189804 L16.6363636,22.1196471 L16.6363636,22.1196471 L16.6363636,22.1196471 L16,22.1196471 L15.3636364,22.1196471 L15.3636364,22.1196471 L15.3636364,22.1196471 L15.3636364,22.1189804 L15.3636364,22.1183137 L15.3636364,22.1176471 L15.3636364,22.1169804 L15.3636364,22.1163137 L15.3636364,22.115647 L15.3636364,22.1143137 L15.3636364,22.113647 L15.3636364,22.1123137 L15.3636364,22.1109803 L15.3636364,22.109647 L15.3636364,22.107647 L15.3636364,22.1063136 L15.3636364,22.0663132 L15.3636364,22.0629798 L15.3636364,22.0596465 L15.3636364,22.0563131 L15.3636364,22.052313 L15.3636364,22.0489797 L15.3636364,22.0449796 L15.3636364,22.0409796 L15.3636364,22.0369795 L15.3636364,22.0329795 L15.3636364,22.0289795 L15.3636364,22.0243127 L15.3636364,22.0203127 L15.3636364,22.015646 L15.3636364,22.0109793 L15.3636364,22.0063126 L15.3636364,22.0016458 L15.3636364,21.9969791 L15.3636364,21.9916457 L15.3636364,21.9816456 L15.3636364,21.9709789 L15.3636364,21.9656455 L15.3636364,21.9603121 L15.3636364,21.9549787 L15.3636364,21.9489786 L15.3636364,21.9376452 L15.3636364,21.9316451 L15.3636364,21.9256451 L15.3636364,21.9129783 L15.3636364,21.3503057 L15.3636364,19.5016198 L15.3636364,15.748914 L10.2727273,13.3308889 L10.2727273,19.6316212 L15.4272727,22.3503161 C15.3636364,22.2783154 15.3636364,22.2009813 15.3636364,22.1196471 L16,22.1196471 L16.6363636,22.1196471 C16.6363636,22.2009813 16.6363636,22.2783154 16.5727273,22.3503161 L21.7272727,19.6316212 L21.7272727,13.3308889 Z M9.7,11.1788664 C9.25454545,11.4055355 9,11.8655403 9,12.3688788 L9,19.6316212 C9,20.1349597 9.25454545,20.5949645 9.7,20.8216336 L15.4272727,23.8569985 C15.8090909,24.0483338 16.1909091,24.0483338 16.5727273,23.8569985 L22.3,20.8216336 C22.7454545,20.5949645 23,20.1349597 23,19.6316212 L23,12.3688788 C23,11.8655403 22.7454545,11.4055355 22.3,11.1788664 L16.5727273,8.14350149 C16.1909091,7.95216617 15.8090909,7.95216617 15.4272727,8.14350149 L9.7,11.1788664 Z" id="Shape" fill="#595AEC"></path>
                    </g>
                </g>
            </g>
        </g>
    </g>
</svg>