<?xml version="1.0" encoding="UTF-8"?>
<svg width="32px" height="32px" viewBox="0 0 32 32" version="1.1" xmlns="http://www.w3.org/2000/svg" xmlns:xlink="http://www.w3.org/1999/xlink">
    <title>Rectangle 2@1x</title>
    <defs>
        <circle id="path-1" cx="16" cy="16" r="14"></circle>
        <filter x="-23.2%" y="-19.6%" width="146.4%" height="146.4%" filterUnits="objectBoundingBox" id="filter-2">
            <feOffset dx="0" dy="1" in="SourceAlpha" result="shadowOffsetOuter1"></feOffset>
            <feGaussianBlur stdDeviation="2" in="shadowOffsetOuter1" result="shadowBlurOuter1"></feGaussianBlur>
            <feColorMatrix values="0 0 0 0 0.360784314   0 0 0 0 0.419607843   0 0 0 0 0.752941176  0 0 0 0.2 0" type="matrix" in="shadowBlurOuter1"></feColorMatrix>
        </filter>
    </defs>
    <g id="页面-1" stroke="none" stroke-width="1" fill="none" fill-rule="evenodd">
        <g id="应用中心-CMDB-模型-CI模型-切icon" transform="translate(-9.000000, -388.000000)">
            <g id="左侧导航" transform="translate(0.000000, 60.000000)">
                <g id="配置" transform="translate(0.000000, 328.000000)">
                    <g transform="translate(9.000000, 0.000000)">
                        <g id="Avatar">
                            <use fill="black" fill-opacity="1" filter="url(#filter-2)" xlink:href="#path-1"></use>
                            <use fill="#FFFFFF" fill-rule="evenodd" xlink:href="#path-1"></use>
                        </g>
                        <path d="M10.8083333,21.2453333 C10.8083333,21.24825 10.75,21.25 10.75,21.25 L9.58333333,21.25 C9.23333333,21.25 9,20.9886667 9,20.6666667 C9,20.3446667 9.23333333,20.0833333 9.58333333,20.0833333 L10.75,20.0833333 C10.75,20.0833333 10.8083333,20.0850833 10.8083333,20.088 C11.1,19.0794167 11.975,18.3333333 13.0833333,18.3333333 C14.1916667,18.3333333 15.0666667,19.0770833 15.3583333,20.0833333 L22.4166667,20.0833333 C22.7666667,20.0833333 23,20.3446667 23,20.6666667 C23,20.9886667 22.7666667,21.25 22.4166667,21.25 L15.3583333,21.25 C15.0666667,22.25625 14.1916667,23 13.0833333,23 C11.975,23 11.1,22.2539167 10.8083333,21.2453333 Z M13.0833333,21.8333333 C13.725,21.8333333 14.25,21.31125 14.25,20.6666667 C14.25,20.0220833 13.725,19.5 13.0833333,19.5 C12.4416667,19.5 11.9166667,20.0220833 11.9166667,20.6666667 C11.9166667,21.31125 12.4416667,21.8333333 13.0833333,21.8333333 Z M13.0833333,12.5 C13.725,12.5 14.25,11.9779167 14.25,11.3333333 C14.25,10.68875 13.725,10.1666667 13.0833333,10.1666667 C12.4416667,10.1666667 11.9166667,10.68875 11.9166667,11.3333333 C11.9166667,11.9779167 12.4416667,12.5 13.0833333,12.5 Z M15.3583333,10.75 C15.0666667,9.74375 14.1916667,9 13.0833333,9 C11.975,9 11.1,9.74608333 10.8083333,10.7546667 C10.8083333,10.75175 10.75,10.75 10.75,10.75 L9.58333333,10.75 C9.23333333,10.75 9,11.0113333 9,11.3333333 C9,11.6553333 9.23333333,11.9166667 9.58333333,11.9166667 L10.75,11.9166667 C10.75,11.9166667 10.8083333,11.9149167 10.8083333,11.912 C11.1,12.9205833 11.975,13.6666667 13.0833333,13.6666667 C14.1916667,13.6666667 15.0666667,12.9229167 15.3583333,11.9166667 L22.4166667,11.9166667 C22.7666667,11.9166667 23,11.6553333 23,11.3333333 C23,11.0113333 22.7666667,10.75 22.4166667,10.75 L15.3583333,10.75 Z M17.75,16 C17.75,16.6445833 18.275,17.1666667 18.9166667,17.1666667 C19.5583333,17.1666667 20.0833333,16.6445833 20.0833333,16 C20.0833333,15.3554167 19.5583333,14.8333333 18.9166667,14.8333333 C18.275,14.8333333 17.75,15.3554167 17.75,16 Z M18.9166667,18.3333333 C17.8083333,18.3333333 16.9333333,17.5895833 16.6416667,16.5833333 L9.58333333,16.5833333 C9.23333333,16.5833333 9,16.322 9,16 C9,15.678 9.23333333,15.4166667 9.58333333,15.4166667 L16.6416667,15.4166667 C16.9333333,14.4104167 17.8083333,13.6666667 18.9166667,13.6666667 C20.025,13.6666667 20.9,14.41275 21.1916667,15.4213333 C21.1916667,15.4184167 21.25,15.4166667 21.25,15.4166667 L22.4166667,15.4166667 C22.7666667,15.4166667 23,15.678 23,16 C23,16.322 22.7666667,16.5833333 22.4166667,16.5833333 L21.25,16.5833333 C21.25,16.5833333 21.1916667,16.5815833 21.1916667,16.5786667 C20.9,17.58725 20.025,18.3333333 18.9166667,18.3333333 Z" id="Shape" fill="#595AEC"></path>
                    </g>
                </g>
            </g>
        </g>
    </g>
</svg>