<?xml version="1.0" encoding="UTF-8"?>
<svg width="18px" height="20px" viewBox="0 0 18 20" version="1.1" xmlns="http://www.w3.org/2000/svg" xmlns:xlink="http://www.w3.org/1999/xlink">
    <title>Rectangle_4_@1x</title>
    <g id="页面-1" stroke="none" stroke-width="1" fill="none" fill-rule="evenodd">
        <g id="应用中心-CMDB-模型-CI模型-切icon" transform="translate(-1239.000000, -20.000000)" fill="#302E6D" fill-rule="nonzero">
            <g id="Group" transform="translate(1236.000000, 18.000000)">
                <path d="M15.1106582,18.7832168 C15.0208517,20.3735926 13.6625022,21.6363636 12,21.6363636 C10.3374978,21.6363636 8.97914827,20.3735926 8.88934184,18.7832168 L5.08034765,18.7832168 C3.9314722,18.7832168 3,17.8820073 3,16.7692308 C3,15.657963 3.93069138,14.7552448 5.07764547,14.7552448 C5.07629817,14.7552448 5.07692308,10.7270208 5.07692308,10.7270208 C5.07692308,7.88976518 6.90663914,5.40219519 9.57692308,4.4365142 L9.57692308,4.34805709 C9.57692308,3.05165164 10.663312,2 12,2 C13.3381219,2 14.4230769,3.05101877 14.4230769,4.34805709 L14.4230769,4.43657016 C17.093295,5.4023797 18.9230769,7.89036276 18.9230769,10.7270208 L18.9230769,14.7546596 C20.0675973,14.7552448 21,15.6576127 21,16.7692308 C21,17.8807916 20.067796,18.7832168 18.9196524,18.7832168 L15.1106582,18.7832168 Z M13.7222235,18.7832168 L10.2777765,18.7832168 C10.3646134,19.6313269 11.1025359,20.2937063 12,20.2937063 C12.8974641,20.2937063 13.6353866,19.6313269 13.7222235,18.7832168 Z M10.4610919,5.56638218 C8.11054255,6.22380666 6.46153846,8.31796261 6.46153846,10.7270208 L6.46153846,14.7546596 C6.46153846,15.4959829 5.84119072,16.0979021 5.07764547,16.0979021 C4.6954722,16.0979021 4.38461538,16.3994157 4.38461538,16.7692308 C4.38461538,17.1397989 4.69547549,17.4405594 5.08034765,17.4405594 L18.9196524,17.4405594 C19.3036187,17.4405594 19.6153846,17.1387528 19.6153846,16.7692308 C19.6153846,16.3997349 19.3035055,16.0979021 18.9223545,16.0979021 C18.1572956,16.0979021 17.5384615,15.498112 17.5384615,14.7546596 L17.5384615,10.7270208 C17.5384615,8.31854985 15.8893326,6.22390366 13.5388812,5.56640668 L13.0384615,5.42642317 L13.0384615,4.34805709 C13.0384615,3.79285075 12.5737319,3.34265734 12,3.34265734 C11.4274796,3.34265734 10.9615385,3.79370002 10.9615385,4.34805709 L10.9615385,5.42641243 L10.4610919,5.56638218 Z" id="Shape"></path>
            </g>
        </g>
    </g>
</svg>