<?xml version="1.0" encoding="UTF-8"?>
<svg width="20px" height="20px" viewBox="0 0 20 20" version="1.1" xmlns="http://www.w3.org/2000/svg" xmlns:xlink="http://www.w3.org/1999/xlink">
    <title>Rectangle_4_@1x</title>
    <g id="页面-1" stroke="none" stroke-width="1" fill="none" fill-rule="evenodd">
        <g id="应用中心-CMDB-模型-CI模型-切icon" transform="translate(-1184.000000, -20.000000)">
            <g id="settings" transform="translate(1182.000000, 18.000000)">
                <g id="编组-22"></g>
                <path d="M21.4961463,13.7450228 L20.1301349,12.9858684 C20.2160081,12.3312219 20.2160081,11.6687781 20.1301349,11.0141316 L21.4961463,10.2549772 C21.8972786,10.0320736 22.0907655,9.57344391 21.958856,9.14606423 C21.4891089,7.62392483 20.6529557,6.2538018 19.5487527,5.13013074 C19.2289694,4.80472702 18.7186316,4.73351724 18.3156561,4.95746919 L16.9516554,5.71545421 C16.4060649,5.31576608 15.8101526,4.98410191 15.1781025,4.72835594 L15.1781025,3.2116601 C15.1781025,2.7628691 14.8575653,2.37278786 14.4038199,2.26944093 C12.8269375,1.91020652 11.1733976,1.9101662 9.5961801,2.26944093 C9.14247664,2.37278786 8.8218975,2.76282877 8.8218975,3.2116601 L8.8218975,4.72835594 C8.18984258,4.98409262 7.59392917,5.31575744 7.04834465,5.71545421 L5.68434389,4.95746919 C5.28132653,4.73351724 4.77098868,4.80472702 4.45124733,5.13013074 C3.34704427,6.2538018 2.51089111,7.62396516 2.04114403,9.14606423 C1.90923449,9.57344391 2.10272136,10.0320333 2.5038537,10.2549772 L3.86986515,11.0141316 C3.78399195,11.6687781 3.78399195,12.3312219 3.86986515,12.9858684 L2.5038537,13.7450228 C2.10272136,13.9679264 1.90923449,14.4265561 2.04114403,14.8539358 C2.51089111,16.3760348 3.34704427,17.7461982 4.45124733,18.8698693 C4.77103057,19.195273 5.28136842,19.2664828 5.68434389,19.0425711 L7.04834465,18.2845861 C7.5939262,18.6842763 8.18984054,19.0159281 8.8218975,19.2716441 L8.8218975,20.7883399 C8.8218975,21.2371309 9.14243475,21.6272121 9.5961801,21.7305591 C11.1731044,22.0897935 12.8266024,22.0898338 14.4038199,21.7305591 C14.8575234,21.6272121 15.1781025,21.2371712 15.1781025,20.7883399 L15.1781025,19.2716441 C15.8101479,19.0159057 16.4060594,18.6842555 16.9516554,18.2845861 L18.3156561,19.0425711 C18.7186316,19.2665231 19.2289694,19.1953133 19.5487527,18.8698693 C20.6529557,17.7461982 21.4891089,16.3760348 21.958856,14.8539358 C22.0907655,14.4265561 21.8972786,13.9679667 21.4961463,13.7450228 L21.4961463,13.7450228 Z M18.7532741,17.7958757 L16.8134205,16.7176483 C15.682911,17.6479319 15.2819881,17.8820049 13.8376435,18.3732556 L13.8376435,20.5296702 C12.6253101,20.7703968 11.3746899,20.7703968 10.1623565,20.5296702 L10.1623565,18.3732556 C8.75399488,17.8942629 8.34624402,17.6718433 7.18657948,16.7176483 L5.24672593,17.7958757 C4.421087,16.9051485 3.79362655,15.8608325 3.40656902,14.7330485 L5.34726036,13.6548211 C5.0735135,12.2267141 5.07338784,11.7740118 5.34726036,10.3451789 L3.40656902,9.26695151 C3.79362655,8.13916755 4.42112889,7.09481113 5.24672593,6.20368075 L7.18657948,7.28271464 C8.333384,6.33779386 8.73912416,6.11073706 10.1623565,5.62670407 L10.1623565,3.47032984 C11.3746472,3.22920069 12.6253528,3.22920069 13.8376435,3.47032984 L13.8376435,5.6267444 C15.2609596,6.11081771 15.6667417,6.33791483 16.8134205,7.28275496 L18.7532741,6.20372107 C19.5788711,7.09481113 20.2063735,8.13916755 20.593431,9.26699184 L18.6527396,10.3452193 C18.9265284,11.7736892 18.9266122,12.2260286 18.6527396,13.6548614 L20.593431,14.7330888 C20.2063735,15.8608325 19.578913,16.9051889 18.7532741,17.7958757 Z M12,8.12904657 C9.78258768,8.12904657 7.97862316,9.86554113 7.97862316,12.0000202 C7.97862316,14.1344992 9.78258768,15.8709938 12,15.8709938 C14.2174123,15.8709938 16.0213768,14.1344992 16.0213768,12.0000202 C16.0213768,9.86554113 14.2174123,8.12904657 12,8.12904657 Z M12,14.5806692 C10.5217251,14.5806692 9.31908211,13.4230062 9.31908211,12.0000202 C9.31908211,10.5770341 10.5217251,9.4193711 12,9.4193711 C13.4782749,9.4193711 14.6809179,10.5770341 14.6809179,12.0000202 C14.6809179,13.4230062 13.4782749,14.5806692 12,14.5806692 Z" id="Shape" fill="#302E6D" fill-rule="nonzero"></path>
            </g>
        </g>
    </g>
</svg>