<?xml version="1.0" encoding="UTF-8"?>
<svg width="16px" height="16px" viewBox="0 0 16 16" version="1.1" xmlns="http://www.w3.org/2000/svg" xmlns:xlink="http://www.w3.org/1999/xlink">
    <title>？</title>
    <g id="页面-1" stroke="none" stroke-width="1" fill="none" fill-rule="evenodd">
        <g id="应用中心-CMDB-切图" transform="translate(-457.000000, -487.000000)" fill="#302E6D" fill-rule="nonzero">
            <g id="？" transform="translate(457.000000, 487.000000)">
                <path d="M8,1.1426021 C8.92657889,1.1426021 9.82459272,1.32291899 10.6690471,1.68176746 C11.4849364,2.02633341 12.2187012,2.52086588 12.8489177,3.15108235 C13.4791341,3.78129882 13.9736666,4.5150636 14.3182325,5.33095291 C14.6752957,6.17540728 14.8573979,7.07342111 14.8573979,8 C14.8573979,8.92657889 14.677081,9.82459272 14.3182325,10.6690471 C13.9736666,11.4849364 13.4791341,12.2187012 12.8489177,12.8489177 C12.2187012,13.4791341 11.4849364,13.9736666 10.6690471,14.3182325 C9.82459272,14.6752957 8.92657889,14.8573979 8,14.8573979 C7.07342111,14.8573979 6.17540728,14.677081 5.33095291,14.3182325 C4.5150636,13.9736666 3.78129882,13.4791341 3.15108235,12.8489177 C2.52086588,12.2187012 2.02633341,11.4849364 1.68176746,10.6690471 C1.32470431,9.82459272 1.1426021,8.92657889 1.1426021,8 C1.1426021,7.07342111 1.32291899,6.17540728 1.68176746,5.33095291 C2.02633341,4.5150636 2.52086588,3.78129882 3.15108235,3.15108235 C3.78129882,2.52086588 4.5150636,2.02633341 5.33095291,1.68176746 C6.17540728,1.32470431 7.07342111,1.1426021 8,1.1426021 M8,0 C3.58134345,0 0,3.58134345 0,8 C0,12.4186565 3.58134345,16 8,16 C12.4186565,16 16,12.4186565 16,8 C16,3.58134345 12.4186565,0 8,0 Z" id="形状"></path>
                <path d="M7.59848099,10.6660047 L8.40026622,10.6660047 L8.40026622,11.4285714 L7.59848099,11.4285714 L7.59848099,10.6660047 Z M7.55964452,10.073824 C7.55588615,9.96301353 7.55463336,9.57100658 7.55463336,9.5161971 C7.55463336,9.19091473 7.60349215,8.91090977 7.69995694,8.67499069 C7.77136593,8.49745563 7.88536977,8.31753754 8.04322123,8.13761946 C8.15973065,8.0053618 8.36769369,7.81352861 8.66961594,7.56092839 C8.9702854,7.30832816 9.16697334,7.10696289 9.25717418,6.95683257 C9.34737501,6.80670225 9.39247543,6.6422738 9.39247543,6.46473874 C9.39247543,6.1430309 9.26093255,5.86064292 8.99659398,5.61638327 C8.73225541,5.37331513 8.40903574,5.25058955 8.02568218,5.25058955 C7.65485652,5.25058955 7.34541753,5.36140002 7.09736523,5.58182947 C6.84931292,5.80225891 6.6864503,6.14660544 6.60877736,6.61606057 L5.71428571,6.51478218 C5.79446424,5.88685615 6.03374701,5.40548591 6.43213405,5.07186298 C6.83052108,4.73824004 7.35543985,4.57142857 8.00939592,4.57142857 C8.70218847,4.57142857 9.2546686,4.75015514 9.66683632,5.1087998 C10.079004,5.46744446 10.2857143,5.90115428 10.2857143,6.40992925 C10.2857143,6.70423234 10.2130525,6.97470523 10.0677289,7.22373092 C9.92240536,7.47275661 9.63927495,7.77420876 9.21708492,8.12927889 C8.93395451,8.3687725 8.74854167,8.54392454 8.66084642,8.65830954 C8.57440395,8.77150304 8.5092589,8.90137768 8.46791685,9.04912498 C8.4265748,9.19568077 8.40151901,9.74496711 8.39525506,10.076207 L7.55964452,10.076207 L7.55964452,10.073824 Z" id="形状"></path>
            </g>
        </g>
    </g>
</svg>