<svg t="1647486480411" class="icon" viewBox="0 0 1024 1024" version="1.1" xmlns="http://www.w3.org/2000/svg" p-id="2471" width="200" height="200"><path d="M190.65 612.86c-20.21-31.36-35.6-65.22-45.83-100.86 10.24-35.64 25.62-69.5 45.83-100.86 22.69-35.2 50.82-66.29 83.63-92.41 33.09-26.34 69.96-46.85 109.6-60.96 41.01-14.6 84.12-22 128.12-22s87.11 7.4 128.12 22c8.29 2.95 16.46 6.2 24.5 9.71l48.09-48.09C652.38 188.93 584.2 171.77 512 171.77c-209.88 0-385.89 144.97-433.38 340.23 20.42 83.96 64.62 158.6 125.04 216.44l45.26-45.26a382.718 382.718 0 0 1-58.27-70.32zM769.21 253.39l-46.02 46.02c9.08 6.04 17.94 12.48 26.53 19.32 32.81 26.12 60.94 57.21 83.63 92.41 20.21 31.36 35.6 65.22 45.83 100.86-10.24 35.64-25.62 69.5-45.83 100.86-22.69 35.2-50.82 66.29-83.63 92.41-33.09 26.34-69.96 46.85-109.6 60.96-41.01 14.6-84.12 22-128.12 22s-87.11-7.4-128.12-22a379.444 379.444 0 0 1-84.75-42.76l-45.97 45.97c72.99 52.11 162.33 82.78 258.84 82.78 209.88 0 385.89-144.97 433.38-340.23-25.81-106.13-89.61-197.39-176.17-258.6z" p-id="2472"></path><path d="M601.1 422.9c23.8 23.8 36.9 55.44 36.9 89.1s-13.11 65.3-36.9 89.1C577.3 624.9 545.66 638 512 638s-65.3-13.11-89.1-36.9c-0.23-0.23-0.46-0.47-0.69-0.71l-45.26 45.26C411.4 680.44 459.18 702 512 702c104.93 0 190-85.07 190-190 0-52.82-21.56-100.6-56.36-135.04l-45.26 45.25c0.24 0.24 0.48 0.46 0.72 0.69zM322 512c0 28.71 6.38 55.92 17.78 80.32l49.9-49.9c-2.43-9.83-3.68-20.03-3.68-30.42 0-33.66 13.11-65.3 36.9-89.1 23.8-23.8 55.44-36.9 89.1-36.9 10.39 0 20.58 1.25 30.42 3.68l49.9-49.9C567.92 328.38 540.71 322 512 322c-104.93 0-190 85.07-190 190z" p-id="2473"></path><path d="M847.06 188.09c-8.19 0-16.38 3.12-22.63 9.37L185.21 836.69c-12.5 12.5-12.5 32.76 0 45.25 6.25 6.25 14.44 9.37 22.63 9.37s16.38-3.12 22.63-9.37l639.22-639.22c12.5-12.5 12.5-32.76 0-45.25-6.25-6.26-14.44-9.38-22.63-9.38z" p-id="2474"></path></svg>